<svg width="55" height="30" viewBox="0 0 55 30" fill="none" xmlns="http://www.w3.org/2000/svg">
	<g clip-path="url(#clip0)">
		<path d="M52.552 12.3118C48.6979 19.6298 39.1574 23.2781 29.322 23.2781C21.5085 23.2781 13.8213 22.2327 7.12403 19.2244C23.1302 20.9526 38.6309 20.2699 52.552 12.3118ZM52.552 9.26086C47.8765 7.85273 43.6644 7.44736 39.3048 7.49003C28.2479 7.57538 17.0647 10.9463 7.18721 15.3627C15.0429 8.30077 26.7316 3.15897 38.4413 3.15897C44.0224 3.15897 50.4459 5.56986 52.552 9.26086ZM54.7002 10.861C54.7002 3.35099 43.517 0.300049 37.1356 0.300049C27.1317 0.300049 18.7285 3.99105 11.5468 8.04475C11.1045 7.23401 10.4727 7.08466 9.48283 6.95665C8.00858 6.82864 7.10297 6.76464 5.98675 6.76464C4.76523 6.76464 2.93295 6.84998 1.50082 7.08466C0.805817 7.21268 0.574149 7.76739 0.763695 8.6208C1.39552 10.9463 2.34325 13.0372 3.58583 15C3.03825 16.9202 3.2278 18.7337 4.80735 20.2272C4.25977 22.4674 4.09129 24.9209 4.17553 27.1398C4.3019 28.0572 4.76523 28.3133 5.52342 28.1852C8.34555 27.7372 11.0834 26.7344 13.4633 25.4543C14.053 25.1343 14.3268 24.7716 14.4953 24.3236L21.4664 25.4117C22.5405 26.5851 23.6146 27.5879 24.9203 28.6973C25.7838 29.3374 26.7105 29.7001 27.8478 29.7001C32.9234 29.6574 37.1987 28.8893 40.7369 27.5239C42.1269 27.0758 43.1589 25.1983 44.6964 22.5741C48.1082 20.8246 54.7002 17.5389 54.7002 10.861Z" fill="white" />
	</g>
	<defs>
		<clipPath id="clip0">
			<rect width="54" height="29.4" fill="white" transform="translate(0.700195 0.300049)" />
		</clipPath>
	</defs>
</svg>	