<svg width="384" height="230" viewBox="0 0 384 230" fill="none" xmlns="http://www.w3.org/2000/svg">
<g clip-path="url(#clip0)">
<rect width="384" height="230" rx="8" fill="white"/>
<circle cx="338.5" cy="26.5" r="137.5" fill="url(#paint0_linear)"/>
<path d="M-85 101.4C-85 92.19 -53.64 77.78 -36.49 77.78C-2.66 77.78 -13.22 89.59 8.06 89.59C32.31 89.59 37.85 37 74.75 37C115.08 37 108.75 88.44 133.5 88.44C144.16 88.44 149.5 83.44 164.65 83.44C173.44 83.44 183.06 92.22 183.06 101.44L-85 101.4Z" fill="#ECD9FF"/>
<g clip-path="url(#clip1)">
<path d="M-36 108C-36 98.9221 -16.1885 96.9982 -8.35807 96.9982C7.52181 96.9982 8.57316 86.6626 21.7589 86.6626C33.3512 86.6626 39.2487 97.3344 50.0415 97.3344C73.2043 97.3344 78.3625 67 100.895 67C123.823 67 122.651 98.6668 143.985 98.6668C154.832 98.6668 220 100.995 220 108.006L-36 108Z" fill="#FFE5F2"/>
</g>
<path d="M25.076 196.628V192.668H26.912V196.628H30.872V198.464H26.912V202.424H25.076V198.464H21.116V196.628H25.076ZM38.7365 190.256H41.0045V195.332H46.9625V190.256H49.2305V203H46.9625V197.384H41.0045V203H38.7365V190.256ZM53.6083 199.436C53.6803 200.084 53.9323 200.588 54.3643 200.948C54.7963 201.308 55.3183 201.488 55.9303 201.488C56.4703 201.488 56.9203 201.38 57.2803 201.164C57.6523 200.936 57.9763 200.654 58.2523 200.318L59.8003 201.488C59.2963 202.112 58.7323 202.556 58.1083 202.82C57.4843 203.084 56.8303 203.216 56.1463 203.216C55.4983 203.216 54.8863 203.108 54.3103 202.892C53.7343 202.676 53.2363 202.37 52.8163 201.974C52.3963 201.578 52.0603 201.104 51.8083 200.552C51.5683 199.988 51.4483 199.364 51.4483 198.68C51.4483 197.996 51.5683 197.378 51.8083 196.826C52.0603 196.262 52.3963 195.782 52.8163 195.386C53.2363 194.99 53.7343 194.684 54.3103 194.468C54.8863 194.252 55.4983 194.144 56.1463 194.144C56.7463 194.144 57.2923 194.252 57.7843 194.468C58.2883 194.672 58.7143 194.972 59.0623 195.368C59.4223 195.764 59.6983 196.256 59.8903 196.844C60.0943 197.42 60.1963 198.086 60.1963 198.842V199.436H53.6083ZM58.0363 197.816C58.0243 197.18 57.8263 196.682 57.4423 196.322C57.0583 195.95 56.5243 195.764 55.8403 195.764C55.1923 195.764 54.6763 195.95 54.2923 196.322C53.9203 196.694 53.6923 197.192 53.6083 197.816H58.0363ZM67.6162 201.812H67.5622C67.2502 202.304 66.8542 202.664 66.3742 202.892C65.8942 203.108 65.3662 203.216 64.7902 203.216C64.3942 203.216 64.0042 203.162 63.6202 203.054C63.2482 202.946 62.9122 202.784 62.6122 202.568C62.3242 202.352 62.0902 202.082 61.9102 201.758C61.7302 201.434 61.6402 201.056 61.6402 200.624C61.6402 200.156 61.7242 199.76 61.8922 199.436C62.0602 199.1 62.2822 198.824 62.5582 198.608C62.8462 198.38 63.1762 198.2 63.5482 198.068C63.9202 197.936 64.3042 197.84 64.7002 197.78C65.1082 197.708 65.5162 197.666 65.9242 197.654C66.3322 197.63 66.7162 197.618 67.0762 197.618H67.6162V197.384C67.6162 196.844 67.4302 196.442 67.0582 196.178C66.6862 195.902 66.2122 195.764 65.6362 195.764C65.1802 195.764 64.7542 195.848 64.3582 196.016C63.9622 196.172 63.6202 196.388 63.3322 196.664L62.1982 195.53C62.6782 195.038 63.2362 194.684 63.8722 194.468C64.5202 194.252 65.1862 194.144 65.8702 194.144C66.4822 194.144 66.9982 194.216 67.4182 194.36C67.8382 194.492 68.1862 194.666 68.4622 194.882C68.7382 195.098 68.9482 195.35 69.0922 195.638C69.2482 195.914 69.3562 196.196 69.4162 196.484C69.4882 196.772 69.5302 197.054 69.5422 197.33C69.5542 197.594 69.5602 197.828 69.5602 198.032V203H67.6162V201.812ZM67.4902 199.13H67.0402C66.7402 199.13 66.4042 199.142 66.0322 199.166C65.6602 199.19 65.3062 199.25 64.9702 199.346C64.6462 199.43 64.3702 199.562 64.1422 199.742C63.9142 199.91 63.8002 200.15 63.8002 200.462C63.8002 200.666 63.8422 200.84 63.9262 200.984C64.0222 201.116 64.1422 201.23 64.2862 201.326C64.4302 201.422 64.5922 201.494 64.7722 201.542C64.9522 201.578 65.1322 201.596 65.3122 201.596C66.0562 201.596 66.6022 201.422 66.9502 201.074C67.3102 200.714 67.4902 200.228 67.4902 199.616V199.13ZM78.7242 201.704H78.6882C78.3762 202.232 77.9562 202.616 77.4282 202.856C76.9002 203.096 76.3302 203.216 75.7182 203.216C75.0462 203.216 74.4462 203.102 73.9182 202.874C73.4022 202.634 72.9582 202.31 72.5862 201.902C72.2142 201.494 71.9322 201.014 71.7402 200.462C71.5482 199.91 71.4522 199.316 71.4522 198.68C71.4522 198.044 71.5542 197.45 71.7582 196.898C71.9622 196.346 72.2442 195.866 72.6042 195.458C72.9762 195.05 73.4202 194.732 73.9362 194.504C74.4522 194.264 75.0162 194.144 75.6282 194.144C76.0362 194.144 76.3962 194.186 76.7082 194.27C77.0202 194.354 77.2962 194.462 77.5362 194.594C77.7762 194.726 77.9802 194.87 78.1482 195.026C78.3162 195.17 78.4542 195.314 78.5622 195.458H78.6162V189.392H80.7762V203H78.7242V201.704ZM73.6122 198.68C73.6122 199.016 73.6662 199.34 73.7742 199.652C73.8942 199.964 74.0622 200.24 74.2782 200.48C74.5062 200.72 74.7762 200.912 75.0882 201.056C75.4002 201.2 75.7542 201.272 76.1502 201.272C76.5462 201.272 76.9002 201.2 77.2122 201.056C77.5242 200.912 77.7882 200.72 78.0042 200.48C78.2322 200.24 78.4002 199.964 78.5082 199.652C78.6282 199.34 78.6882 199.016 78.6882 198.68C78.6882 198.344 78.6282 198.02 78.5082 197.708C78.4002 197.396 78.2322 197.12 78.0042 196.88C77.7882 196.64 77.5242 196.448 77.2122 196.304C76.9002 196.16 76.5462 196.088 76.1502 196.088C75.7542 196.088 75.4002 196.16 75.0882 196.304C74.7762 196.448 74.5062 196.64 74.2782 196.88C74.0622 197.12 73.8942 197.396 73.7742 197.708C73.6662 198.02 73.6122 198.344 73.6122 198.68ZM82.79 198.68C82.79 197.996 82.91 197.378 83.15 196.826C83.402 196.262 83.738 195.782 84.158 195.386C84.578 194.99 85.076 194.684 85.652 194.468C86.228 194.252 86.84 194.144 87.488 194.144C88.136 194.144 88.748 194.252 89.324 194.468C89.9 194.684 90.398 194.99 90.818 195.386C91.238 195.782 91.568 196.262 91.808 196.826C92.06 197.378 92.186 197.996 92.186 198.68C92.186 199.364 92.06 199.988 91.808 200.552C91.568 201.104 91.238 201.578 90.818 201.974C90.398 202.37 89.9 202.676 89.324 202.892C88.748 203.108 88.136 203.216 87.488 203.216C86.84 203.216 86.228 203.108 85.652 202.892C85.076 202.676 84.578 202.37 84.158 201.974C83.738 201.578 83.402 201.104 83.15 200.552C82.91 199.988 82.79 199.364 82.79 198.68ZM84.95 198.68C84.95 199.016 85.004 199.34 85.112 199.652C85.232 199.964 85.4 200.24 85.616 200.48C85.844 200.72 86.114 200.912 86.426 201.056C86.738 201.2 87.092 201.272 87.488 201.272C87.884 201.272 88.238 201.2 88.55 201.056C88.862 200.912 89.126 200.72 89.342 200.48C89.57 200.24 89.738 199.964 89.846 199.652C89.966 199.34 90.026 199.016 90.026 198.68C90.026 198.344 89.966 198.02 89.846 197.708C89.738 197.396 89.57 197.12 89.342 196.88C89.126 196.64 88.862 196.448 88.55 196.304C88.238 196.16 87.884 196.088 87.488 196.088C87.092 196.088 86.738 196.16 86.426 196.304C86.114 196.448 85.844 196.64 85.616 196.88C85.4 197.12 85.232 197.396 85.112 197.708C85.004 198.02 84.95 198.344 84.95 198.68ZM102.092 203H100.04V201.614H100.004C99.8004 202.046 99.4884 202.424 99.0684 202.748C98.6484 203.06 98.0784 203.216 97.3584 203.216C96.7824 203.216 96.2904 203.126 95.8824 202.946C95.4864 202.754 95.1624 202.502 94.9104 202.19C94.6584 201.866 94.4784 201.5 94.3704 201.092C94.2624 200.684 94.2084 200.258 94.2084 199.814V194.36H96.3684V198.734C96.3684 198.974 96.3804 199.244 96.4044 199.544C96.4284 199.832 96.4884 200.108 96.5844 200.372C96.6924 200.624 96.8484 200.84 97.0524 201.02C97.2684 201.188 97.5684 201.272 97.9524 201.272C98.3124 201.272 98.6124 201.212 98.8524 201.092C99.1044 200.972 99.3084 200.81 99.4644 200.606C99.6324 200.402 99.7524 200.168 99.8244 199.904C99.8964 199.64 99.9324 199.364 99.9324 199.076V194.36H102.092V203ZM103.536 196.196V194.36H105.318V191.858H107.478V194.36H109.854V196.196H107.478V199.976C107.478 200.408 107.556 200.75 107.712 201.002C107.88 201.254 108.204 201.38 108.684 201.38C108.876 201.38 109.086 201.362 109.314 201.326C109.542 201.278 109.722 201.206 109.854 201.11V202.928C109.626 203.036 109.344 203.108 109.008 203.144C108.684 203.192 108.396 203.216 108.144 203.216C107.568 203.216 107.094 203.15 106.722 203.018C106.362 202.898 106.074 202.712 105.858 202.46C105.654 202.196 105.51 201.872 105.426 201.488C105.354 201.104 105.318 200.66 105.318 200.156V196.196H103.536ZM128.387 202.064C126.815 202.904 125.057 203.324 123.113 203.324C122.129 203.324 121.223 203.168 120.395 202.856C119.579 202.532 118.871 202.082 118.271 201.506C117.683 200.918 117.221 200.216 116.885 199.4C116.549 198.584 116.381 197.678 116.381 196.682C116.381 195.662 116.549 194.738 116.885 193.91C117.221 193.07 117.683 192.356 118.271 191.768C118.871 191.18 119.579 190.73 120.395 190.418C121.223 190.094 122.129 189.932 123.113 189.932C124.085 189.932 124.997 190.052 125.849 190.292C126.701 190.52 127.463 190.934 128.135 191.534L126.461 193.226C126.053 192.83 125.555 192.524 124.967 192.308C124.391 192.092 123.779 191.984 123.131 191.984C122.471 191.984 121.871 192.104 121.331 192.344C120.803 192.572 120.347 192.896 119.963 193.316C119.579 193.724 119.279 194.204 119.063 194.756C118.859 195.308 118.757 195.902 118.757 196.538C118.757 197.222 118.859 197.852 119.063 198.428C119.279 199.004 119.579 199.502 119.963 199.922C120.347 200.342 120.803 200.672 121.331 200.912C121.871 201.152 122.471 201.272 123.131 201.272C123.707 201.272 124.247 201.218 124.751 201.11C125.267 201.002 125.723 200.834 126.119 200.606V197.6H123.509V195.548H128.387V202.064ZM130.444 198.68C130.444 197.996 130.564 197.378 130.804 196.826C131.056 196.262 131.392 195.782 131.812 195.386C132.232 194.99 132.73 194.684 133.306 194.468C133.882 194.252 134.494 194.144 135.142 194.144C135.79 194.144 136.402 194.252 136.978 194.468C137.554 194.684 138.052 194.99 138.472 195.386C138.892 195.782 139.222 196.262 139.462 196.826C139.714 197.378 139.84 197.996 139.84 198.68C139.84 199.364 139.714 199.988 139.462 200.552C139.222 201.104 138.892 201.578 138.472 201.974C138.052 202.37 137.554 202.676 136.978 202.892C136.402 203.108 135.79 203.216 135.142 203.216C134.494 203.216 133.882 203.108 133.306 202.892C132.73 202.676 132.232 202.37 131.812 201.974C131.392 201.578 131.056 201.104 130.804 200.552C130.564 199.988 130.444 199.364 130.444 198.68ZM132.604 198.68C132.604 199.016 132.658 199.34 132.766 199.652C132.886 199.964 133.054 200.24 133.27 200.48C133.498 200.72 133.768 200.912 134.08 201.056C134.392 201.2 134.746 201.272 135.142 201.272C135.538 201.272 135.892 201.2 136.204 201.056C136.516 200.912 136.78 200.72 136.996 200.48C137.224 200.24 137.392 199.964 137.5 199.652C137.62 199.34 137.68 199.016 137.68 198.68C137.68 198.344 137.62 198.02 137.5 197.708C137.392 197.396 137.224 197.12 136.996 196.88C136.78 196.64 136.516 196.448 136.204 196.304C135.892 196.16 135.538 196.088 135.142 196.088C134.746 196.088 134.392 196.16 134.08 196.304C133.768 196.448 133.498 196.64 133.27 196.88C133.054 197.12 132.886 197.396 132.766 197.708C132.658 198.02 132.604 198.344 132.604 198.68ZM141.431 198.68C141.431 197.996 141.551 197.378 141.791 196.826C142.043 196.262 142.379 195.782 142.799 195.386C143.219 194.99 143.717 194.684 144.293 194.468C144.869 194.252 145.481 194.144 146.129 194.144C146.777 194.144 147.389 194.252 147.965 194.468C148.541 194.684 149.039 194.99 149.459 195.386C149.879 195.782 150.209 196.262 150.449 196.826C150.701 197.378 150.827 197.996 150.827 198.68C150.827 199.364 150.701 199.988 150.449 200.552C150.209 201.104 149.879 201.578 149.459 201.974C149.039 202.37 148.541 202.676 147.965 202.892C147.389 203.108 146.777 203.216 146.129 203.216C145.481 203.216 144.869 203.108 144.293 202.892C143.717 202.676 143.219 202.37 142.799 201.974C142.379 201.578 142.043 201.104 141.791 200.552C141.551 199.988 141.431 199.364 141.431 198.68ZM143.591 198.68C143.591 199.016 143.645 199.34 143.753 199.652C143.873 199.964 144.041 200.24 144.257 200.48C144.485 200.72 144.755 200.912 145.067 201.056C145.379 201.2 145.733 201.272 146.129 201.272C146.525 201.272 146.879 201.2 147.191 201.056C147.503 200.912 147.767 200.72 147.983 200.48C148.211 200.24 148.379 199.964 148.487 199.652C148.607 199.34 148.667 199.016 148.667 198.68C148.667 198.344 148.607 198.02 148.487 197.708C148.379 197.396 148.211 197.12 147.983 196.88C147.767 196.64 147.503 196.448 147.191 196.304C146.879 196.16 146.525 196.088 146.129 196.088C145.733 196.088 145.379 196.16 145.067 196.304C144.755 196.448 144.485 196.64 144.257 196.88C144.041 197.12 143.873 197.396 143.753 197.708C143.645 198.02 143.591 198.344 143.591 198.68ZM159.689 201.704H159.653C159.341 202.232 158.921 202.616 158.393 202.856C157.865 203.096 157.295 203.216 156.683 203.216C156.011 203.216 155.411 203.102 154.883 202.874C154.367 202.634 153.923 202.31 153.551 201.902C153.179 201.494 152.897 201.014 152.705 200.462C152.513 199.91 152.417 199.316 152.417 198.68C152.417 198.044 152.519 197.45 152.723 196.898C152.927 196.346 153.209 195.866 153.569 195.458C153.941 195.05 154.385 194.732 154.901 194.504C155.417 194.264 155.981 194.144 156.593 194.144C157.001 194.144 157.361 194.186 157.673 194.27C157.985 194.354 158.261 194.462 158.501 194.594C158.741 194.726 158.945 194.87 159.113 195.026C159.281 195.17 159.419 195.314 159.527 195.458H159.581V189.392H161.741V203H159.689V201.704ZM154.577 198.68C154.577 199.016 154.631 199.34 154.739 199.652C154.859 199.964 155.027 200.24 155.243 200.48C155.471 200.72 155.741 200.912 156.053 201.056C156.365 201.2 156.719 201.272 157.115 201.272C157.511 201.272 157.865 201.2 158.177 201.056C158.489 200.912 158.753 200.72 158.969 200.48C159.197 200.24 159.365 199.964 159.473 199.652C159.593 199.34 159.653 199.016 159.653 198.68C159.653 198.344 159.593 198.02 159.473 197.708C159.365 197.396 159.197 197.12 158.969 196.88C158.753 196.64 158.489 196.448 158.177 196.304C157.865 196.16 157.511 196.088 157.115 196.088C156.719 196.088 156.365 196.16 156.053 196.304C155.741 196.448 155.471 196.64 155.243 196.88C155.027 197.12 154.859 197.396 154.739 197.708C154.631 198.02 154.577 198.344 154.577 198.68ZM164.24 194.36H166.4V203H164.24V194.36ZM163.934 191.426C163.934 191.078 164.06 190.778 164.312 190.526C164.576 190.262 164.906 190.13 165.302 190.13C165.698 190.13 166.028 190.256 166.292 190.508C166.568 190.748 166.706 191.054 166.706 191.426C166.706 191.798 166.568 192.11 166.292 192.362C166.028 192.602 165.698 192.722 165.302 192.722C164.906 192.722 164.576 192.596 164.312 192.344C164.06 192.08 163.934 191.774 163.934 191.426ZM170.608 199.436C170.68 200.084 170.932 200.588 171.364 200.948C171.796 201.308 172.318 201.488 172.93 201.488C173.47 201.488 173.92 201.38 174.28 201.164C174.652 200.936 174.976 200.654 175.252 200.318L176.8 201.488C176.296 202.112 175.732 202.556 175.108 202.82C174.484 203.084 173.83 203.216 173.146 203.216C172.498 203.216 171.886 203.108 171.31 202.892C170.734 202.676 170.236 202.37 169.816 201.974C169.396 201.578 169.06 201.104 168.808 200.552C168.568 199.988 168.448 199.364 168.448 198.68C168.448 197.996 168.568 197.378 168.808 196.826C169.06 196.262 169.396 195.782 169.816 195.386C170.236 194.99 170.734 194.684 171.31 194.468C171.886 194.252 172.498 194.144 173.146 194.144C173.746 194.144 174.292 194.252 174.784 194.468C175.288 194.672 175.714 194.972 176.062 195.368C176.422 195.764 176.698 196.256 176.89 196.844C177.094 197.42 177.196 198.086 177.196 198.842V199.436H170.608ZM175.036 197.816C175.024 197.18 174.826 196.682 174.442 196.322C174.058 195.95 173.524 195.764 172.84 195.764C172.192 195.764 171.676 195.95 171.292 196.322C170.92 196.694 170.692 197.192 170.608 197.816H175.036ZM184.74 190.256H189.708C190.188 190.256 190.662 190.316 191.13 190.436C191.598 190.544 192.012 190.73 192.372 190.994C192.744 191.246 193.044 191.576 193.272 191.984C193.5 192.392 193.614 192.884 193.614 193.46C193.614 194.18 193.41 194.774 193.002 195.242C192.594 195.71 192.06 196.046 191.4 196.25V196.286C191.796 196.334 192.162 196.448 192.498 196.628C192.846 196.796 193.14 197.018 193.38 197.294C193.62 197.558 193.806 197.87 193.938 198.23C194.082 198.578 194.154 198.956 194.154 199.364C194.154 200.06 194.016 200.642 193.74 201.11C193.464 201.566 193.098 201.938 192.642 202.226C192.198 202.502 191.682 202.7 191.094 202.82C190.518 202.94 189.93 203 189.33 203H184.74V190.256ZM187.008 195.44H189.078C189.834 195.44 190.398 195.296 190.77 195.008C191.154 194.708 191.346 194.318 191.346 193.838C191.346 193.286 191.148 192.878 190.752 192.614C190.368 192.338 189.744 192.2 188.88 192.2H187.008V195.44ZM187.008 201.056H189.096C189.384 201.056 189.69 201.038 190.014 201.002C190.35 200.966 190.656 200.882 190.932 200.75C191.208 200.618 191.436 200.432 191.616 200.192C191.796 199.94 191.886 199.604 191.886 199.184C191.886 198.512 191.664 198.044 191.22 197.78C190.788 197.516 190.11 197.384 189.186 197.384H187.008V201.056ZM201.614 201.812H201.56C201.248 202.304 200.852 202.664 200.372 202.892C199.892 203.108 199.364 203.216 198.788 203.216C198.392 203.216 198.002 203.162 197.618 203.054C197.246 202.946 196.91 202.784 196.61 202.568C196.322 202.352 196.088 202.082 195.908 201.758C195.728 201.434 195.638 201.056 195.638 200.624C195.638 200.156 195.722 199.76 195.89 199.436C196.058 199.1 196.28 198.824 196.556 198.608C196.844 198.38 197.174 198.2 197.546 198.068C197.918 197.936 198.302 197.84 198.698 197.78C199.106 197.708 199.514 197.666 199.922 197.654C200.33 197.63 200.714 197.618 201.074 197.618H201.614V197.384C201.614 196.844 201.428 196.442 201.056 196.178C200.684 195.902 200.21 195.764 199.634 195.764C199.178 195.764 198.752 195.848 198.356 196.016C197.96 196.172 197.618 196.388 197.33 196.664L196.196 195.53C196.676 195.038 197.234 194.684 197.87 194.468C198.518 194.252 199.184 194.144 199.868 194.144C200.48 194.144 200.996 194.216 201.416 194.36C201.836 194.492 202.184 194.666 202.46 194.882C202.736 195.098 202.946 195.35 203.09 195.638C203.246 195.914 203.354 196.196 203.414 196.484C203.486 196.772 203.528 197.054 203.54 197.33C203.552 197.594 203.558 197.828 203.558 198.032V203H201.614V201.812ZM201.488 199.13H201.038C200.738 199.13 200.402 199.142 200.03 199.166C199.658 199.19 199.304 199.25 198.968 199.346C198.644 199.43 198.368 199.562 198.14 199.742C197.912 199.91 197.798 200.15 197.798 200.462C197.798 200.666 197.84 200.84 197.924 200.984C198.02 201.116 198.14 201.23 198.284 201.326C198.428 201.422 198.59 201.494 198.77 201.542C198.95 201.578 199.13 201.596 199.31 201.596C200.054 201.596 200.6 201.422 200.948 201.074C201.308 200.714 201.488 200.228 201.488 199.616V199.13ZM214.774 194.36V202.226C214.774 203.006 214.678 203.708 214.486 204.332C214.294 204.968 213.994 205.502 213.586 205.934C213.19 206.378 212.686 206.72 212.074 206.96C211.462 207.2 210.736 207.32 209.896 207.32C209.092 207.32 208.33 207.218 207.61 207.014C206.89 206.81 206.224 206.438 205.612 205.898L206.908 204.134C207.34 204.53 207.79 204.836 208.258 205.052C208.726 205.268 209.266 205.376 209.878 205.376C210.394 205.376 210.826 205.304 211.174 205.16C211.534 205.016 211.816 204.818 212.02 204.566C212.236 204.314 212.386 204.008 212.47 203.648C212.566 203.3 212.614 202.91 212.614 202.478V201.848H212.578C212.266 202.268 211.852 202.586 211.336 202.802C210.82 203.006 210.292 203.108 209.752 203.108C209.104 203.108 208.516 202.994 207.988 202.766C207.46 202.526 207.004 202.208 206.62 201.812C206.248 201.416 205.96 200.948 205.756 200.408C205.552 199.868 205.45 199.292 205.45 198.68C205.45 198.044 205.546 197.45 205.738 196.898C205.93 196.346 206.212 195.866 206.584 195.458C206.956 195.05 207.4 194.732 207.916 194.504C208.444 194.264 209.044 194.144 209.716 194.144C210.328 194.144 210.898 194.264 211.426 194.504C211.954 194.744 212.374 195.128 212.686 195.656H212.722V194.36H214.774ZM210.166 196.088C209.782 196.088 209.434 196.154 209.122 196.286C208.81 196.406 208.54 196.58 208.312 196.808C208.096 197.024 207.922 197.294 207.79 197.618C207.67 197.93 207.61 198.278 207.61 198.662C207.61 199.01 207.67 199.334 207.79 199.634C207.922 199.934 208.102 200.198 208.33 200.426C208.558 200.654 208.828 200.834 209.14 200.966C209.452 201.098 209.788 201.164 210.148 201.164C210.544 201.164 210.898 201.098 211.21 200.966C211.534 200.834 211.804 200.66 212.02 200.444C212.248 200.216 212.422 199.946 212.542 199.634C212.662 199.322 212.722 198.986 212.722 198.626C212.722 197.87 212.494 197.258 212.038 196.79C211.582 196.322 210.958 196.088 210.166 196.088ZM221.828 196.754C221.408 196.166 220.844 195.872 220.136 195.872C219.848 195.872 219.566 195.944 219.29 196.088C219.014 196.232 218.876 196.466 218.876 196.79C218.876 197.054 218.99 197.246 219.218 197.366C219.446 197.486 219.734 197.588 220.082 197.672C220.43 197.756 220.802 197.846 221.198 197.942C221.606 198.026 221.984 198.164 222.332 198.356C222.68 198.536 222.968 198.788 223.196 199.112C223.424 199.436 223.538 199.88 223.538 200.444C223.538 200.96 223.424 201.398 223.196 201.758C222.98 202.106 222.692 202.388 222.332 202.604C221.984 202.82 221.588 202.976 221.144 203.072C220.7 203.168 220.256 203.216 219.812 203.216C219.14 203.216 218.522 203.12 217.958 202.928C217.394 202.736 216.89 202.388 216.446 201.884L217.886 200.534C218.162 200.846 218.456 201.104 218.768 201.308C219.092 201.5 219.482 201.596 219.938 201.596C220.094 201.596 220.256 201.578 220.424 201.542C220.592 201.506 220.748 201.446 220.892 201.362C221.036 201.278 221.15 201.176 221.234 201.056C221.33 200.924 221.378 200.774 221.378 200.606C221.378 200.306 221.264 200.084 221.036 199.94C220.808 199.796 220.52 199.682 220.172 199.598C219.824 199.502 219.446 199.418 219.038 199.346C218.642 199.262 218.27 199.136 217.922 198.968C217.574 198.788 217.286 198.542 217.058 198.23C216.83 197.918 216.716 197.486 216.716 196.934C216.716 196.454 216.812 196.04 217.004 195.692C217.208 195.332 217.472 195.038 217.796 194.81C218.12 194.582 218.492 194.414 218.912 194.306C219.332 194.198 219.758 194.144 220.19 194.144C220.766 194.144 221.336 194.246 221.9 194.45C222.464 194.642 222.92 194.978 223.268 195.458L221.828 196.754Z" fill="url(#paint1_linear)"/>
<path d="M31.76 174L23.12 158.928V155.376H26C27.696 155.376 29.12 155.008 30.272 154.272C31.424 153.504 32.16 152.448 32.48 151.104H23.12V147.552H32.432C32.144 146.336 31.552 145.328 30.656 144.528C29.76 143.696 28.512 143.28 26.912 143.28H23.12V139.728H44.768V143.28H37.232C38.352 144.496 39.056 145.92 39.344 147.552H44.768V151.104H39.44C39.12 153.472 38.208 155.328 36.704 156.672C35.2 157.984 33.264 158.88 30.896 159.36L40.304 174H31.76ZM63.1168 174.576C72.1888 174.576 77.0368 170.304 77.0368 163.776C77.0368 159.6 74.3008 156.816 70.3648 156C73.9648 154.944 76.1728 152.448 76.1728 148.608C76.1728 142.896 71.3248 139.2 63.2608 139.2C54.7168 139.2 50.2048 143.856 49.7728 150.624H58.4608C58.8448 147.84 60.3808 146.256 63.0208 146.256C65.6128 146.256 66.9568 147.6 66.9568 149.664C66.9568 152.064 65.4688 153.456 62.3968 153.456H59.8528V159.552H62.5888C65.6608 159.552 67.1008 160.896 67.1008 163.584C67.1008 166.032 65.6128 167.472 62.5888 167.472C59.1808 167.472 57.8368 165.552 57.5488 162.72H48.8128C49.1008 170.16 53.5648 174.576 63.1168 174.576ZM96.2109 166.944C91.9869 166.944 90.1149 163.92 90.1149 157.536V156.096C90.1149 149.76 91.9869 146.64 96.1149 146.64C100.291 146.64 102.115 149.808 102.115 156.096V157.488C102.115 163.824 100.435 166.944 96.2109 166.944ZM95.9229 174.576C105.715 174.576 111.955 168.192 111.955 157.296V155.952C111.955 144.816 105.139 139.2 96.1149 139.2C87.0429 139.2 80.2749 145.296 80.2749 156.144V157.584C80.2749 168.384 86.3229 174.576 95.9229 174.576ZM117.169 179.856L124.081 168.096L116.113 165.264L112.081 177.888L117.169 179.856ZM141.258 166.944C137.034 166.944 135.162 163.92 135.162 157.536V156.096C135.162 149.76 137.034 146.64 141.162 146.64C145.338 146.64 147.162 149.808 147.162 156.096V157.488C147.162 163.824 145.482 166.944 141.258 166.944ZM140.97 174.576C150.762 174.576 157.002 168.192 157.002 157.296V155.952C157.002 144.816 150.186 139.2 141.162 139.2C132.09 139.2 125.322 145.296 125.322 156.144V157.584C125.322 168.384 131.37 174.576 140.97 174.576ZM176.414 166.944C172.19 166.944 170.318 163.92 170.318 157.536V156.096C170.318 149.76 172.19 146.64 176.318 146.64C180.494 146.64 182.318 149.808 182.318 156.096V157.488C182.318 163.824 180.638 166.944 176.414 166.944ZM176.126 174.576C185.918 174.576 192.158 168.192 192.158 157.296V155.952C192.158 144.816 185.342 139.2 176.318 139.2C167.246 139.2 160.478 145.296 160.478 156.144V157.584C160.478 168.384 166.526 174.576 176.126 174.576ZM211.57 166.944C207.346 166.944 205.474 163.92 205.474 157.536V156.096C205.474 149.76 207.346 146.64 211.474 146.64C215.65 146.64 217.474 149.808 217.474 156.096V157.488C217.474 163.824 215.794 166.944 211.57 166.944ZM211.282 174.576C221.074 174.576 227.314 168.192 227.314 157.296V155.952C227.314 144.816 220.498 139.2 211.474 139.2C202.402 139.2 195.634 145.296 195.634 156.144V157.584C195.634 168.384 201.682 174.576 211.282 174.576Z" fill="url(#paint2_linear)"/>
<g clip-path="url(#clip2)">
<path d="M61 17.7778L45.4444 0H21L52.1111 37.7778L77.7133 27.2222L61 17.7778Z" fill="url(#paint3_linear)"/>
<path d="M76.5556 0L61 17.7778L72.9778 34.0267L75.7044 30.7178L101 0H76.5556Z" fill="url(#paint4_linear)"/>
<path d="M72.5667 35.6133C72.7445 35.1311 72.8578 34.6178 72.8578 34.0734C72.8578 32.8946 72.3895 31.7641 71.5561 30.9307C70.7226 30.0972 69.5921 29.6289 68.4134 29.6289H53.5978C52.4191 29.6289 51.2886 30.0972 50.4551 30.9307C49.6216 31.7641 49.1534 32.8946 49.1534 34.0734C49.1534 34.6178 49.2645 35.1311 49.4445 35.6133C42.2045 39.6711 37.3022 47.4067 37.3022 56.2956C37.3 69.3867 47.9134 80 61.0045 80C74.0956 80 84.7089 69.3867 84.7089 56.2956C84.7089 47.4067 79.8067 39.6711 72.5667 35.6133V35.6133Z" fill="#FFBC00"/>
<path d="M64.12 41.3335H60.2955L54.2289 46.0713C54.0872 46.2501 54.0007 46.4663 53.98 46.6935V49.3113C53.98 49.7246 54.3133 50.0979 54.7289 50.0979H58.7178V68.7957C58.7178 69.2135 59.0511 69.5846 59.5066 69.5846H64.12C64.5333 69.5846 64.8666 69.2113 64.8666 68.7957V42.1202C64.8666 41.7068 64.5355 41.3335 64.12 41.3335Z" fill="#A46E00"/>
</g>
<path d="M336.878 173.102C337.781 177.488 344.771 234.608 347.089 237.614C349.407 240.621 418.751 287.779 418.751 287.779L412.226 299.871C412.226 299.871 337.711 265.83 333.962 263.154C330.214 260.478 302.887 230.017 299.576 218.195C296.265 206.373 331.52 172.284 336.878 173.102Z" fill="#222222"/>
<path d="M269.298 132.872C270.856 133.528 283.205 138.229 284.523 138.387C285.841 138.546 286.159 151.574 284.851 151.291C283.543 151.009 267.431 143.974 263.315 143.081C259.199 142.189 269.298 132.872 269.298 132.872Z" fill="#FFD8D8"/>
<path d="M322.596 83.0044C313.195 80.9648 295.081 83.4278 289.178 85.9325C277.534 90.8472 280.441 172.803 285.375 179.468C290.191 182.07 334.21 177.146 336.878 173.102C336.774 164.333 323.372 132.488 321.953 130.681C323.157 129.735 328.708 124.4 328.708 124.4C328.708 124.4 325.053 118.031 324.609 117.644C326.107 116.886 341.288 107.595 342.13 107.074C339.848 102.632 325.757 83.6729 322.596 83.0044Z" fill="#B266FF"/>
<path d="M300.551 151.212C301.518 149.473 327.726 125.351 328.689 124.376C327.64 122.477 325.885 119.554 324.43 117.317C331.56 113.318 339.253 108.731 342.055 106.841C342.09 106.902 342.123 106.964 342.152 107.028C343.134 108.531 351.52 125.065 351.262 127.216C351.004 129.368 316.069 156.064 311.99 157.092C307.911 158.119 299.59 152.946 300.551 151.212Z" fill="#FFD8D8"/>
<path d="M295.649 159.61C293.592 155.454 295.615 150.258 300.167 148.005C304.72 145.751 310.078 147.294 312.135 151.449C314.193 155.605 312.169 160.801 307.617 163.054C303.064 165.308 297.706 163.766 295.649 159.61Z" fill="#FFD8D8"/>
<path d="M264.136 144.697C260.037 144.205 257.113 140.483 257.605 136.384C258.097 132.285 261.819 129.361 265.918 129.853C270.017 130.345 272.941 134.067 272.449 138.166C271.957 142.265 268.235 145.189 264.136 144.697Z" fill="#FFD8D8"/>
<path d="M285.375 179.468C285.375 179.468 258.496 219.538 254.102 228.013C249.708 236.487 232.114 314.428 232.114 314.428C232.114 314.428 242.803 317.009 245.866 316.079C248.929 315.148 267.911 259.192 275.984 248.251C288.27 231.569 347.374 204.827 336.878 173.102" fill="#2FCCEB"/>
<path d="M313.073 86.3021C313.158 87.7308 301.539 88.4037 301.454 86.975L300.615 72.5093L312.235 71.8364L313.073 86.3021Z" fill="#FFD8D8"/>
<path d="M304.104 76.7582C305.236 76.6921 312.676 79.4784 312.778 81.2638L312.234 71.8365C310.427 71.9414 304.104 76.7582 304.104 76.7582Z" fill="#222222"/>
<path d="M299.551 77.7774C290.602 76.7031 284.218 68.5771 285.292 59.6275C286.366 50.6779 294.492 44.2937 303.442 45.368C312.391 46.4423 318.776 54.5683 317.701 63.5179C316.627 72.4675 308.501 78.8517 299.551 77.7774Z" fill="#FFD8D8"/>
<path d="M295.26 63.33C294.773 64.1171 292.215 67.4763 295.173 68.6007" stroke="#222222" stroke-width="1.2" stroke-miterlimit="10" stroke-linecap="round"/>
<path d="M297.153 73.0028C298.008 72.9254 299.271 71.8113 299.916 70.8083" stroke="#222222" stroke-width="1.2" stroke-miterlimit="10" stroke-linecap="round"/>
<path d="M325.186 118.516C323.9 116.681 319.179 109.202 317.064 107" stroke="#222222" stroke-miterlimit="10" stroke-linecap="round"/>
<path d="M301.892 39.6007C306.194 40.1172 319.215 39.5416 322.593 37.7211C323.726 38.7355 327.655 44.5482 330.246 51.7335L322.916 56.1621L331.179 54.5952C332.328 58.2801 332.789 62.1453 332.538 65.9972C329.335 70.6812 322.801 71.3044 321.639 71.1649C314.109 70.2611 314.136 58.2234 310.813 55.9042C305.161 51.9522 296.26 56.3395 287.113 53.6375C286.148 48.9497 291.582 38.3631 301.892 39.6007Z" fill="#222222"/>
<path d="M316.22 66.3136C314.153 66.0654 312.678 64.1883 312.926 62.121C313.174 60.0536 315.051 58.5789 317.119 58.827C319.186 59.0752 320.661 60.9523 320.413 63.0196C320.165 65.087 318.287 66.5617 316.22 66.3136Z" fill="#FFD8D8"/>
<path d="M318.709 153.07C320.237 151.971 332.613 155.41 334.502 162.396C331.921 154.307 329.399 147.599 328.611 145.938C327.454 146.803 318.709 153.07 318.709 153.07Z" fill="#222222"/>
<path d="M281.084 138.406C281.121 140.592 278.188 148.62 274.293 147.072L281.414 149.973L281.084 138.406Z" fill="#222222"/>
<path fill-rule="evenodd" clip-rule="evenodd" d="M281 62H310V64H309V66H308V67H307V68H300V67H299V66H298V64H295V66H294V67H292V68H284V67H283V66H282V64H281V62Z" fill="#222222"/>
<rect x="283" y="63" width="1" height="1" fill="white"/>
<rect x="284" y="64" width="1" height="1" fill="white"/>
<rect x="285" y="65" width="1" height="1" fill="white"/>
<rect x="286" y="66" width="1" height="1" fill="white"/>
<rect x="285" y="63" width="1" height="1" fill="white"/>
<rect x="286" y="64" width="1" height="1" fill="white"/>
<rect x="287" y="65" width="1" height="1" fill="white"/>
<rect x="288" y="66" width="1" height="1" fill="white"/>
<rect x="299" y="63" width="1" height="1" fill="white"/>
<rect x="300" y="64" width="1" height="1" fill="white"/>
<rect x="301" y="65" width="1" height="1" fill="white"/>
<rect x="302" y="66" width="1" height="1" fill="white"/>
<rect x="304" y="66" width="1" height="1" fill="white"/>
<rect x="303" y="65" width="1" height="1" fill="white"/>
<rect x="302" y="64" width="1" height="1" fill="white"/>
<rect x="301" y="63" width="1" height="1" fill="white"/>
</g>
<defs>
<linearGradient id="paint0_linear" x1="338.5" y1="-111" x2="338.5" y2="164" gradientUnits="userSpaceOnUse">
<stop stop-color="#FFD766"/>
<stop offset="1" stop-color="#FFF2CC"/>
</linearGradient>
<linearGradient id="paint1_linear" x1="20" y1="185" x2="145.958" y2="297.431" gradientUnits="userSpaceOnUse">
<stop stop-color="#EC1943"/>
<stop offset="1" stop-color="#FF00A8"/>
</linearGradient>
<linearGradient id="paint2_linear" x1="20" y1="121" x2="226.383" y2="195.077" gradientUnits="userSpaceOnUse">
<stop stop-color="#EC1943"/>
<stop offset="1" stop-color="#FF00A8"/>
</linearGradient>
<linearGradient id="paint3_linear" x1="21" y1="0" x2="82.265" y2="10.0608" gradientUnits="userSpaceOnUse">
<stop stop-color="#EC1943"/>
<stop offset="1" stop-color="#FF00A8"/>
</linearGradient>
<linearGradient id="paint4_linear" x1="61" y1="0" x2="104.654" y2="5.61349" gradientUnits="userSpaceOnUse">
<stop stop-color="#EC1943"/>
<stop offset="1" stop-color="#FF00A8"/>
</linearGradient>
<clipPath id="clip0">
<rect width="384" height="230" rx="8" fill="white"/>
</clipPath>
<clipPath id="clip1">
<rect width="256" height="41" fill="white" transform="translate(-36 67)"/>
</clipPath>
<clipPath id="clip2">
<rect width="80" height="80" fill="white" transform="translate(21)"/>
</clipPath>
</defs>
</svg>
