<svg width="1141" height="262" viewBox="0 0 1141 262" fill="none" xmlns="http://www.w3.org/2000/svg">
<path d="M1.67578 223.034V2H338.226V257.674H78.8195H45.7579L1.67578 223.034Z" fill="white"/>
<path d="M1.67578 223.034V2H338.226V257.674H78.8196M1.67578 223.034L45.7579 257.674M1.67578 223.034H45.7579M45.7579 257.674V223.034M45.7579 257.674H78.8196M45.7579 223.034L78.8196 257.674" stroke="black" stroke-width="2.60892"/>
<path d="M46.0273 257.675H79.9433L46.0273 223.759V257.675Z" fill="#0E081C"/>
<path d="M1.68262 33.7773H338.233" stroke="black" stroke-width="2.60892"/>
<path d="M402.396 225.044V2H742.007V259.999H480.242H446.88L402.396 225.044Z" fill="white"/>
<path d="M402.396 225.044V2H742.007V259.999H480.242M402.396 225.044L446.88 259.999M402.396 225.044H446.88M446.88 259.999V225.044M446.88 259.999H480.242M446.88 225.044L480.242 259.999" stroke="black" stroke-width="2.63264"/>
<path d="M447.151 260H481.376L447.151 225.775V260Z" fill="#0E081C"/>
<path d="M403.713 40.1738H743.324" stroke="black" stroke-width="2.63264"/>
<path d="M800.004 225.044V2H1139.61V259.999H877.849H844.487L800.004 225.044Z" fill="white"/>
<path d="M800.004 225.044V2H1139.61V259.999H877.849M800.004 225.044L844.487 259.999M800.004 225.044H844.487M844.487 259.999V225.044M844.487 259.999H877.849M844.487 225.044L877.849 259.999" stroke="black" stroke-width="2.63264"/>
<path d="M844.759 260H878.983L844.759 225.775V260Z" fill="#0E081C"/>
<path d="M801.32 40.1738H1140.93" stroke="black" stroke-width="2.63264"/>
<path d="M135.79 141.688V147.028H142.957C145.3 147.028 146.986 148.059 147.642 149.886H135.79V153.586H147.595C146.939 155.366 145.253 156.491 142.957 156.491H135.79V161.831H140.802L146.939 172.934H154.622L147.548 161.035C150.546 160.332 153.685 157.896 154.294 153.586H158.744V149.886H154.2C153.779 148.059 152.795 146.513 151.343 145.342H158.744V141.688H135.79ZM160.582 168.483C162.877 171.294 167.14 173.496 172.902 173.496C180.398 173.496 185.223 169.701 185.223 164.314C185.223 159.629 181.1 157.147 177.915 156.819C181.381 156.21 184.754 153.633 184.754 149.698C184.754 144.498 180.257 141.219 172.949 141.219C167.468 141.219 163.533 143.327 161.003 146.185L164.283 150.307C166.484 148.199 169.201 147.028 172.246 147.028C175.526 147.028 178.055 148.293 178.055 150.776C178.055 153.118 175.76 154.242 172.293 154.242C171.075 154.242 168.967 154.242 168.405 154.195V160.004C168.873 159.957 170.982 159.957 172.293 159.957C176.65 159.957 178.571 161.128 178.571 163.658C178.571 166.047 176.462 167.687 172.668 167.687C169.623 167.687 166.203 166.375 164.048 164.127L160.582 168.483ZM188.732 157.334C188.732 165.391 192.714 173.496 201.661 173.496C210.562 173.496 214.591 165.391 214.591 157.334C214.591 149.277 210.562 141.219 201.661 141.219C192.714 141.219 188.732 149.277 188.732 157.334ZM207.798 157.334C207.798 163.096 206.112 167.593 201.661 167.593C197.164 167.593 195.478 163.096 195.478 157.334C195.478 151.572 197.164 147.122 201.661 147.122C206.112 147.122 207.798 151.572 207.798 157.334ZM220.429 179.351C223.287 177.29 225.254 174.152 225.254 170.638C225.254 167.593 223.24 165.86 221.038 165.86C219.071 165.86 217.384 167.546 217.384 169.608C217.384 171.622 218.79 173.027 220.57 173.027C220.898 173.027 221.319 172.934 221.46 172.887C221.085 174.526 219.352 176.447 217.853 177.243L220.429 179.351ZM228.761 157.334C228.761 165.391 232.743 173.496 241.691 173.496C250.591 173.496 254.62 165.391 254.62 157.334C254.62 149.277 250.591 141.219 241.691 141.219C232.743 141.219 228.761 149.277 228.761 157.334ZM247.827 157.334C247.827 163.096 246.141 167.593 241.691 167.593C237.193 167.593 235.507 163.096 235.507 157.334C235.507 151.572 237.193 147.122 241.691 147.122C246.141 147.122 247.827 151.572 247.827 157.334ZM257.811 157.334C257.811 165.391 261.793 173.496 270.74 173.496C279.641 173.496 283.67 165.391 283.67 157.334C283.67 149.277 279.641 141.219 270.74 141.219C261.793 141.219 257.811 149.277 257.811 157.334ZM276.877 157.334C276.877 163.096 275.191 167.593 270.74 167.593C266.243 167.593 264.557 163.096 264.557 157.334C264.557 151.572 266.243 147.122 270.74 147.122C275.191 147.122 276.877 151.572 276.877 157.334ZM286.861 157.334C286.861 165.391 290.843 173.496 299.79 173.496C308.691 173.496 312.72 165.391 312.72 157.334C312.72 149.277 308.691 141.219 299.79 141.219C290.843 141.219 286.861 149.277 286.861 157.334ZM305.927 157.334C305.927 163.096 304.241 167.593 299.79 167.593C295.293 167.593 293.607 163.096 293.607 157.334C293.607 151.572 295.293 147.122 299.79 147.122C304.241 147.122 305.927 151.572 305.927 157.334Z" fill="url(#paint0_linear_638_412)"/>
<path d="M537.438 141.64V146.98H544.605C546.947 146.98 548.634 148.011 549.29 149.838H537.438V153.538H549.243C548.587 155.319 546.901 156.443 544.605 156.443H537.438V161.783H542.45L548.587 172.886H556.27L549.196 160.987C552.194 160.284 555.333 157.848 555.942 153.538H560.392V149.838H555.848C555.427 148.011 554.443 146.465 552.991 145.294H560.392V141.64H537.438ZM587.011 172.886V167.03H573.988C582.373 161.127 586.777 156.49 586.777 151.149C586.777 144.919 581.483 141.171 574.831 141.171C570.475 141.171 565.837 142.764 562.792 146.277L566.586 150.681C568.694 148.479 571.412 147.074 574.925 147.074C577.548 147.074 580.031 148.432 580.031 151.149C580.031 154.991 576.283 158.223 563.495 167.639V172.886H587.011ZM590.975 157.286C590.975 165.344 594.957 173.448 603.904 173.448C612.805 173.448 616.834 165.344 616.834 157.286C616.834 149.229 612.805 141.171 603.904 141.171C594.957 141.171 590.975 149.229 590.975 157.286ZM610.041 157.286C610.041 163.048 608.354 167.545 603.904 167.545C599.407 167.545 597.72 163.048 597.72 157.286C597.72 151.524 599.407 147.074 603.904 147.074C608.354 147.074 610.041 151.524 610.041 157.286ZM622.672 179.304C625.53 177.242 627.497 174.104 627.497 170.59C627.497 167.545 625.483 165.812 623.281 165.812C621.313 165.812 619.627 167.498 619.627 169.56C619.627 171.574 621.032 172.979 622.813 172.979C623.14 172.979 623.562 172.886 623.703 172.839C623.328 174.478 621.595 176.399 620.095 177.196L622.672 179.304ZM631.004 157.286C631.004 165.344 634.986 173.448 643.933 173.448C652.834 173.448 656.863 165.344 656.863 157.286C656.863 149.229 652.834 141.171 643.933 141.171C634.986 141.171 631.004 149.229 631.004 157.286ZM650.07 157.286C650.07 163.048 648.384 167.545 643.933 167.545C639.436 167.545 637.75 163.048 637.75 157.286C637.75 151.524 639.436 147.074 643.933 147.074C648.384 147.074 650.07 151.524 650.07 157.286ZM660.054 157.286C660.054 165.344 664.036 173.448 672.983 173.448C681.884 173.448 685.913 165.344 685.913 157.286C685.913 149.229 681.884 141.171 672.983 141.171C664.036 141.171 660.054 149.229 660.054 157.286ZM679.12 157.286C679.12 163.048 677.433 167.545 672.983 167.545C668.486 167.545 666.8 163.048 666.8 157.286C666.8 151.524 668.486 147.074 672.983 147.074C677.433 147.074 679.12 151.524 679.12 157.286ZM689.104 157.286C689.104 165.344 693.085 173.448 702.033 173.448C710.934 173.448 714.962 165.344 714.962 157.286C714.962 149.229 710.934 141.171 702.033 141.171C693.085 141.171 689.104 149.229 689.104 157.286ZM708.17 157.286C708.17 163.048 706.483 167.545 702.033 167.545C697.536 167.545 695.849 163.048 695.849 157.286C695.849 151.524 697.536 147.074 702.033 147.074C706.483 147.074 708.17 151.524 708.17 157.286Z" fill="url(#paint1_linear_638_412)"/>
<path d="M943.874 141.64V146.98H951.041C953.383 146.98 955.07 148.011 955.726 149.838H943.874V153.538H955.679C955.023 155.319 953.336 156.443 951.041 156.443H943.874V161.783H948.886L955.023 172.886H962.706L955.632 160.987C958.63 160.284 961.769 157.848 962.378 153.538H966.828V149.838H962.284C961.862 148.011 960.879 146.465 959.426 145.294H966.828V141.64H943.874ZM983.89 172.886V141.64H978.082L968.244 151.524L972.038 155.506L977.191 150.212V172.886H983.89ZM988.581 157.286C988.581 165.344 992.563 173.448 1001.51 173.448C1010.41 173.448 1014.44 165.344 1014.44 157.286C1014.44 149.229 1010.41 141.171 1001.51 141.171C992.563 141.171 988.581 149.229 988.581 157.286ZM1007.65 157.286C1007.65 163.048 1005.96 167.545 1001.51 167.545C997.013 167.545 995.327 163.048 995.327 157.286C995.327 151.524 997.013 147.074 1001.51 147.074C1005.96 147.074 1007.65 151.524 1007.65 157.286ZM1020.28 179.304C1023.14 177.242 1025.1 174.104 1025.1 170.59C1025.1 167.545 1023.09 165.812 1020.89 165.812C1018.92 165.812 1017.23 167.498 1017.23 169.56C1017.23 171.574 1018.64 172.979 1020.42 172.979C1020.75 172.979 1021.17 172.886 1021.31 172.839C1020.93 174.478 1019.2 176.399 1017.7 177.196L1020.28 179.304ZM1028.61 157.286C1028.61 165.344 1032.59 173.448 1041.54 173.448C1050.44 173.448 1054.47 165.344 1054.47 157.286C1054.47 149.229 1050.44 141.171 1041.54 141.171C1032.59 141.171 1028.61 149.229 1028.61 157.286ZM1047.68 157.286C1047.68 163.048 1045.99 167.545 1041.54 167.545C1037.04 167.545 1035.36 163.048 1035.36 157.286C1035.36 151.524 1037.04 147.074 1041.54 147.074C1045.99 147.074 1047.68 151.524 1047.68 157.286ZM1057.66 157.286C1057.66 165.344 1061.64 173.448 1070.59 173.448C1079.49 173.448 1083.52 165.344 1083.52 157.286C1083.52 149.229 1079.49 141.171 1070.59 141.171C1061.64 141.171 1057.66 149.229 1057.66 157.286ZM1076.73 157.286C1076.73 163.048 1075.04 167.545 1070.59 167.545C1066.09 167.545 1064.41 163.048 1064.41 157.286C1064.41 151.524 1066.09 147.074 1070.59 147.074C1075.04 147.074 1076.73 151.524 1076.73 157.286ZM1086.71 157.286C1086.71 165.344 1090.69 173.448 1099.64 173.448C1108.54 173.448 1112.57 165.344 1112.57 157.286C1112.57 149.229 1108.54 141.171 1099.64 141.171C1090.69 141.171 1086.71 149.229 1086.71 157.286ZM1105.78 157.286C1105.78 163.048 1104.09 167.545 1099.64 167.545C1095.14 167.545 1093.46 163.048 1093.46 157.286C1093.46 151.524 1095.14 147.074 1099.64 147.074C1104.09 147.074 1105.78 151.524 1105.78 157.286Z" fill="url(#paint2_linear_638_412)"/>
<path d="M91.6544 200.746V199.478H87.6813V195.188H86.2865V199.478H82.3134V200.746H86.2865V205.184H87.6813V200.746H91.6544ZM111.304 207.234V193.138H109.191V199.056H101.393V193.138H99.2796V207.234H101.393V200.937H109.191V207.234H111.304ZM113.752 202.12C113.752 205.332 115.992 207.488 119.035 207.488C120.683 207.488 122.12 206.96 123.135 205.966L122.247 204.72C121.486 205.501 120.303 205.924 119.225 205.924C117.175 205.924 115.907 204.487 115.759 202.754H123.832V202.289C123.832 199.161 121.93 196.773 118.866 196.773C115.886 196.773 113.752 199.161 113.752 202.12ZM118.866 198.337C121.022 198.337 121.93 200.028 121.973 201.38H115.738C115.844 199.986 116.816 198.337 118.866 198.337ZM134.411 207.234V200.345C134.411 197.745 132.53 196.773 130.311 196.773C128.663 196.773 127.268 197.323 126.127 198.443L126.951 199.753C127.86 198.844 128.853 198.401 130.015 198.401C131.473 198.401 132.509 199.161 132.509 200.429V202.12C131.727 201.211 130.544 200.768 129.17 200.768C127.458 200.768 125.62 201.782 125.62 204.107C125.62 206.347 127.479 207.488 129.17 207.488C130.544 207.488 131.706 207.002 132.509 206.114V207.234H134.411ZM132.509 204.994C131.938 205.755 130.945 206.157 129.888 206.157C128.515 206.157 127.543 205.332 127.543 204.128C127.543 202.923 128.515 202.099 129.888 202.099C130.945 202.099 131.938 202.5 132.509 203.261V204.994ZM146.631 207.234V193.138H144.729V198.506C143.905 197.407 142.7 196.773 141.39 196.773C138.727 196.773 136.825 198.866 136.825 202.141C136.825 205.48 138.727 207.488 141.39 207.488C142.742 207.488 143.968 206.791 144.729 205.776V207.234H146.631ZM144.729 204.318C144.201 205.142 143.059 205.797 141.897 205.797C139.995 205.797 138.812 204.255 138.812 202.141C138.812 200.007 139.995 198.464 141.897 198.464C143.059 198.464 144.201 199.14 144.729 199.964V204.318ZM154.199 207.488C157.39 207.488 159.356 205.079 159.356 202.12C159.356 199.183 157.39 196.773 154.199 196.773C151.029 196.773 149.043 199.183 149.043 202.12C149.043 205.079 151.029 207.488 154.199 207.488ZM154.199 205.797C152.17 205.797 151.029 204.064 151.029 202.12C151.029 200.197 152.17 198.464 154.199 198.464C156.249 198.464 157.369 200.197 157.369 202.12C157.369 204.064 156.249 205.797 154.199 205.797ZM170.562 207.234V197.027H168.66V204.36C168.09 205.121 167.012 205.797 165.828 205.797C164.518 205.797 163.673 205.29 163.673 203.599V197.027H161.771V204.233C161.771 206.389 162.848 207.488 165.025 207.488C166.589 207.488 167.878 206.685 168.66 205.84V207.234H170.562ZM176.386 207.488C177.38 207.488 177.971 207.213 178.373 206.833L177.887 205.396C177.697 205.607 177.295 205.797 176.851 205.797C176.196 205.797 175.858 205.269 175.858 204.55V198.696H177.929V197.027H175.858V194.237H173.956V197.027H172.265V198.696H173.956V204.973C173.956 206.579 174.78 207.488 176.386 207.488ZM184.934 200.197C184.934 204.593 188.21 207.509 192.246 207.509C194.635 207.509 196.579 206.516 197.931 205.015V199.838H191.295V201.697H195.818V204.233C195.142 204.867 193.81 205.628 192.246 205.628C189.309 205.628 187.111 203.346 187.111 200.197C187.111 197.027 189.309 194.787 192.246 194.787C193.895 194.787 195.311 195.611 196.114 196.689L197.826 195.696C196.642 194.111 194.888 192.906 192.246 192.906C188.21 192.906 184.934 195.801 184.934 200.197ZM205.113 207.488C208.305 207.488 210.27 205.079 210.27 202.12C210.27 199.183 208.305 196.773 205.113 196.773C201.943 196.773 199.957 199.183 199.957 202.12C199.957 205.079 201.943 207.488 205.113 207.488ZM205.113 205.797C203.085 205.797 201.943 204.064 201.943 202.12C201.943 200.197 203.085 198.464 205.113 198.464C207.163 198.464 208.283 200.197 208.283 202.12C208.283 204.064 207.163 205.797 205.113 205.797ZM217.207 207.488C220.398 207.488 222.364 205.079 222.364 202.12C222.364 199.183 220.398 196.773 217.207 196.773C214.037 196.773 212.051 199.183 212.051 202.12C212.051 205.079 214.037 207.488 217.207 207.488ZM217.207 205.797C215.178 205.797 214.037 204.064 214.037 202.12C214.037 200.197 215.178 198.464 217.207 198.464C219.257 198.464 220.377 200.197 220.377 202.12C220.377 204.064 219.257 205.797 217.207 205.797ZM233.951 207.234V193.138H232.049V198.506C231.224 197.407 230.02 196.773 228.709 196.773C226.047 196.773 224.145 198.866 224.145 202.141C224.145 205.48 226.047 207.488 228.709 207.488C230.062 207.488 231.288 206.791 232.049 205.776V207.234H233.951ZM232.049 204.318C231.52 205.142 230.379 205.797 229.217 205.797C227.315 205.797 226.131 204.255 226.131 202.141C226.131 200.007 227.315 198.464 229.217 198.464C230.379 198.464 231.52 199.14 232.049 199.964V204.318ZM237.926 195.315C238.603 195.315 239.152 194.787 239.152 194.111C239.152 193.434 238.603 192.885 237.926 192.885C237.271 192.885 236.701 193.434 236.701 194.111C236.701 194.787 237.271 195.315 237.926 195.315ZM238.898 207.234V197.027H236.996V207.234H238.898ZM241.295 202.12C241.295 205.332 243.535 207.488 246.578 207.488C248.227 207.488 249.664 206.96 250.678 205.966L249.79 204.72C249.03 205.501 247.846 205.924 246.768 205.924C244.718 205.924 243.45 204.487 243.303 202.754H251.375V202.289C251.375 199.161 249.473 196.773 246.409 196.773C243.429 196.773 241.295 199.161 241.295 202.12ZM246.409 198.337C248.565 198.337 249.473 200.028 249.516 201.38H243.281C243.387 199.986 244.359 198.337 246.409 198.337ZM252.867 205.903C253.902 206.96 255.403 207.488 257.115 207.488C259.799 207.488 261.236 206.114 261.236 204.36C261.236 202.014 259.122 201.528 257.347 201.127C256.079 200.831 254.98 200.535 254.98 199.647C254.98 198.823 255.783 198.316 257.072 198.316C258.362 198.316 259.503 198.844 260.094 199.563L260.94 198.232C260.073 197.407 258.805 196.773 257.051 196.773C254.558 196.773 253.163 198.168 253.163 199.795C253.163 201.993 255.192 202.458 256.924 202.86C258.235 203.156 259.397 203.494 259.397 204.508C259.397 205.375 258.636 205.966 257.199 205.966C255.826 205.966 254.473 205.269 253.776 204.508L252.867 205.903ZM275.915 207.234C278.514 207.234 279.993 205.649 279.993 203.43C279.993 201.719 278.768 200.197 277.267 199.964C278.556 199.69 279.719 198.506 279.719 196.731C279.719 194.681 278.26 193.138 275.746 193.138H269.131V207.234H275.915ZM271.244 194.998H275.344C276.76 194.998 277.542 195.907 277.542 197.069C277.542 198.232 276.76 199.119 275.344 199.119H271.244V194.998ZM271.244 200.979H275.45C277.014 200.979 277.817 201.993 277.817 203.156C277.817 204.529 276.929 205.375 275.45 205.375H271.244V200.979ZM290.765 207.234V200.345C290.765 197.745 288.884 196.773 286.665 196.773C285.017 196.773 283.622 197.323 282.481 198.443L283.305 199.753C284.214 198.844 285.207 198.401 286.369 198.401C287.827 198.401 288.863 199.161 288.863 200.429V202.12C288.081 201.211 286.898 200.768 285.524 200.768C283.812 200.768 281.973 201.782 281.973 204.107C281.973 206.347 283.833 207.488 285.524 207.488C286.898 207.488 288.06 207.002 288.863 206.114V207.234H290.765ZM288.863 204.994C288.292 205.755 287.299 206.157 286.242 206.157C284.869 206.157 283.897 205.332 283.897 204.128C283.897 202.923 284.869 202.099 286.242 202.099C287.299 202.099 288.292 202.5 288.863 203.261V204.994ZM293.728 209.855C294.954 211.017 296.201 211.377 297.913 211.377C300.428 211.377 302.985 210.341 302.985 206.833V197.027H301.083V198.506C300.259 197.407 299.054 196.773 297.723 196.773C295.081 196.773 293.179 198.76 293.179 202.036C293.179 205.375 295.081 207.319 297.723 207.319C299.096 207.319 300.301 206.579 301.083 205.565V206.896C301.083 209.052 299.498 209.813 297.913 209.813C296.518 209.813 295.483 209.432 294.637 208.46L293.728 209.855ZM301.083 204.107C300.555 204.931 299.392 205.628 298.251 205.628C296.349 205.628 295.166 204.149 295.166 202.036C295.166 199.943 296.349 198.464 298.251 198.464C299.392 198.464 300.555 199.14 301.083 199.964V204.107ZM305.122 205.903C306.158 206.96 307.658 207.488 309.37 207.488C312.054 207.488 313.491 206.114 313.491 204.36C313.491 202.014 311.378 201.528 309.603 201.127C308.335 200.831 307.236 200.535 307.236 199.647C307.236 198.823 308.039 198.316 309.328 198.316C310.617 198.316 311.758 198.844 312.35 199.563L313.195 198.232C312.329 197.407 311.061 196.773 309.307 196.773C306.813 196.773 305.418 198.168 305.418 199.795C305.418 201.993 307.447 202.458 309.18 202.86C310.49 203.156 311.653 203.494 311.653 204.508C311.653 205.375 310.892 205.966 309.455 205.966C308.081 205.966 306.729 205.269 306.031 204.508L305.122 205.903Z" fill="url(#paint3_linear_638_412)"/>
<path d="M493.745 200.751V199.483H489.772V195.193H488.377V199.483H484.404V200.751H488.377V205.189H489.772V200.751H493.745ZM513.395 207.239V193.143H511.282V199.061H503.484V193.143H501.37V207.239H503.484V200.942H511.282V207.239H513.395ZM515.842 202.125C515.842 205.337 518.083 207.493 521.126 207.493C522.774 207.493 524.211 206.965 525.226 205.971L524.338 204.724C523.577 205.506 522.394 205.929 521.316 205.929C519.266 205.929 517.998 204.492 517.85 202.759H525.923V202.294C525.923 199.166 524.021 196.778 520.957 196.778C517.977 196.778 515.842 199.166 515.842 202.125ZM520.957 198.342C523.112 198.342 524.021 200.033 524.063 201.385H517.829C517.935 199.991 518.907 198.342 520.957 198.342ZM536.502 207.239V200.35C536.502 197.75 534.621 196.778 532.402 196.778C530.754 196.778 529.359 197.328 528.218 198.448L529.042 199.758C529.95 198.849 530.944 198.406 532.106 198.406C533.564 198.406 534.6 199.166 534.6 200.434V202.125C533.818 201.216 532.634 200.772 531.261 200.772C529.549 200.772 527.71 201.787 527.71 204.112C527.71 206.352 529.57 207.493 531.261 207.493C532.634 207.493 533.797 207.007 534.6 206.119V207.239H536.502ZM534.6 204.999C534.029 205.76 533.036 206.161 531.979 206.161C530.606 206.161 529.633 205.337 529.633 204.133C529.633 202.928 530.606 202.104 531.979 202.104C533.036 202.104 534.029 202.505 534.6 203.266V204.999ZM548.722 207.239V193.143H546.82V198.511C545.995 197.412 544.791 196.778 543.481 196.778C540.818 196.778 538.916 198.87 538.916 202.146C538.916 205.485 540.818 207.493 543.481 207.493C544.833 207.493 546.059 206.795 546.82 205.781V207.239H548.722ZM546.82 204.323C546.291 205.147 545.15 205.802 543.988 205.802C542.086 205.802 540.902 204.259 540.902 202.146C540.902 200.012 542.086 198.469 543.988 198.469C545.15 198.469 546.291 199.145 546.82 199.969V204.323ZM556.29 207.493C559.481 207.493 561.447 205.084 561.447 202.125C561.447 199.187 559.481 196.778 556.29 196.778C553.12 196.778 551.134 199.187 551.134 202.125C551.134 205.084 553.12 207.493 556.29 207.493ZM556.29 205.802C554.261 205.802 553.12 204.069 553.12 202.125C553.12 200.202 554.261 198.469 556.29 198.469C558.34 198.469 559.46 200.202 559.46 202.125C559.46 204.069 558.34 205.802 556.29 205.802ZM572.653 207.239V197.032H570.751V204.365C570.18 205.126 569.103 205.802 567.919 205.802C566.609 205.802 565.763 205.295 565.763 203.604V197.032H563.861V204.238C563.861 206.394 564.939 207.493 567.116 207.493C568.68 207.493 569.969 206.69 570.751 205.844V207.239H572.653ZM578.477 207.493C579.47 207.493 580.062 207.218 580.464 206.838L579.978 205.401C579.787 205.612 579.386 205.802 578.942 205.802C578.287 205.802 577.949 205.274 577.949 204.555V198.701H580.02V197.032H577.949V194.242H576.047V197.032H574.356V198.701H576.047V204.978C576.047 206.584 576.871 207.493 578.477 207.493ZM587.025 200.202C587.025 204.598 590.301 207.514 594.337 207.514C596.725 207.514 598.67 206.521 600.022 205.02V199.843H593.386V201.702H597.909V204.238C597.233 204.872 595.901 205.633 594.337 205.633C591.4 205.633 589.202 203.351 589.202 200.202C589.202 197.032 591.4 194.792 594.337 194.792C595.986 194.792 597.402 195.616 598.205 196.694L599.916 195.7C598.733 194.115 596.979 192.911 594.337 192.911C590.301 192.911 587.025 195.806 587.025 200.202ZM607.204 207.493C610.395 207.493 612.361 205.084 612.361 202.125C612.361 199.187 610.395 196.778 607.204 196.778C604.034 196.778 602.048 199.187 602.048 202.125C602.048 205.084 604.034 207.493 607.204 207.493ZM607.204 205.802C605.175 205.802 604.034 204.069 604.034 202.125C604.034 200.202 605.175 198.469 607.204 198.469C609.254 198.469 610.374 200.202 610.374 202.125C610.374 204.069 609.254 205.802 607.204 205.802ZM619.298 207.493C622.489 207.493 624.455 205.084 624.455 202.125C624.455 199.187 622.489 196.778 619.298 196.778C616.128 196.778 614.142 199.187 614.142 202.125C614.142 205.084 616.128 207.493 619.298 207.493ZM619.298 205.802C617.269 205.802 616.128 204.069 616.128 202.125C616.128 200.202 617.269 198.469 619.298 198.469C621.348 198.469 622.468 200.202 622.468 202.125C622.468 204.069 621.348 205.802 619.298 205.802ZM636.041 207.239V193.143H634.139V198.511C633.315 197.412 632.111 196.778 630.8 196.778C628.137 196.778 626.235 198.87 626.235 202.146C626.235 205.485 628.137 207.493 630.8 207.493C632.153 207.493 633.379 206.795 634.139 205.781V207.239H636.041ZM634.139 204.323C633.611 205.147 632.47 205.802 631.307 205.802C629.405 205.802 628.222 204.259 628.222 202.146C628.222 200.012 629.405 198.469 631.307 198.469C632.47 198.469 633.611 199.145 634.139 199.969V204.323ZM640.017 195.32C640.693 195.32 641.243 194.792 641.243 194.115C641.243 193.439 640.693 192.89 640.017 192.89C639.362 192.89 638.791 193.439 638.791 194.115C638.791 194.792 639.362 195.32 640.017 195.32ZM640.989 207.239V197.032H639.087V207.239H640.989ZM643.386 202.125C643.386 205.337 645.626 207.493 648.669 207.493C650.317 207.493 651.755 206.965 652.769 205.971L651.881 204.724C651.121 205.506 649.937 205.929 648.859 205.929C646.809 205.929 645.541 204.492 645.393 202.759H653.466V202.294C653.466 199.166 651.564 196.778 648.5 196.778C645.52 196.778 643.386 199.166 643.386 202.125ZM648.5 198.342C650.656 198.342 651.564 200.033 651.607 201.385H645.372C645.478 199.991 646.45 198.342 648.5 198.342ZM654.958 205.908C655.993 206.965 657.494 207.493 659.206 207.493C661.889 207.493 663.327 206.119 663.327 204.365C663.327 202.019 661.213 201.533 659.438 201.132C658.17 200.836 657.071 200.54 657.071 199.652C657.071 198.828 657.874 198.321 659.163 198.321C660.452 198.321 661.594 198.849 662.185 199.568L663.031 198.236C662.164 197.412 660.896 196.778 659.142 196.778C656.648 196.778 655.254 198.173 655.254 199.8C655.254 201.998 657.282 202.463 659.015 202.865C660.326 203.161 661.488 203.499 661.488 204.513C661.488 205.38 660.727 205.971 659.29 205.971C657.916 205.971 656.564 205.274 655.866 204.513L654.958 205.908ZM678.005 207.239C680.605 207.239 682.084 205.654 682.084 203.435C682.084 201.723 680.858 200.202 679.358 199.969C680.647 199.695 681.809 198.511 681.809 196.736C681.809 194.686 680.351 193.143 677.836 193.143H671.222V207.239H678.005ZM673.335 195.003H677.435C678.851 195.003 679.633 195.912 679.633 197.074C679.633 198.236 678.851 199.124 677.435 199.124H673.335V195.003ZM673.335 200.984H677.541C679.104 200.984 679.907 201.998 679.907 203.161C679.907 204.534 679.02 205.38 677.541 205.38H673.335V200.984ZM692.856 207.239V200.35C692.856 197.75 690.975 196.778 688.756 196.778C687.108 196.778 685.713 197.328 684.571 198.448L685.396 199.758C686.304 198.849 687.298 198.406 688.46 198.406C689.918 198.406 690.954 199.166 690.954 200.434V202.125C690.172 201.216 688.988 200.772 687.615 200.772C685.903 200.772 684.064 201.787 684.064 204.112C684.064 206.352 685.924 207.493 687.615 207.493C688.988 207.493 690.151 207.007 690.954 206.119V207.239H692.856ZM690.954 204.999C690.383 205.76 689.39 206.161 688.333 206.161C686.96 206.161 685.987 205.337 685.987 204.133C685.987 202.928 686.96 202.104 688.333 202.104C689.39 202.104 690.383 202.505 690.954 203.266V204.999ZM695.819 209.86C697.045 211.022 698.292 211.381 700.004 211.381C702.519 211.381 705.076 210.346 705.076 206.838V197.032H703.174V198.511C702.349 197.412 701.145 196.778 699.813 196.778C697.172 196.778 695.27 198.765 695.27 202.04C695.27 205.38 697.172 207.324 699.813 207.324C701.187 207.324 702.392 206.584 703.174 205.57V206.901C703.174 209.057 701.589 209.818 700.004 209.818C698.609 209.818 697.573 209.437 696.728 208.465L695.819 209.86ZM703.174 204.112C702.645 204.936 701.483 205.633 700.342 205.633C698.44 205.633 697.256 204.154 697.256 202.04C697.256 199.948 698.44 198.469 700.342 198.469C701.483 198.469 702.645 199.145 703.174 199.969V204.112ZM707.213 205.908C708.249 206.965 709.749 207.493 711.461 207.493C714.145 207.493 715.582 206.119 715.582 204.365C715.582 202.019 713.469 201.533 711.694 201.132C710.426 200.836 709.327 200.54 709.327 199.652C709.327 198.828 710.13 198.321 711.419 198.321C712.708 198.321 713.849 198.849 714.441 199.568L715.286 198.236C714.42 197.412 713.152 196.778 711.398 196.778C708.904 196.778 707.509 198.173 707.509 199.8C707.509 201.998 709.538 202.463 711.271 202.865C712.581 203.161 713.743 203.499 713.743 204.513C713.743 205.38 712.983 205.971 711.546 205.971C710.172 205.971 708.819 205.274 708.122 204.513L707.213 205.908Z" fill="url(#paint4_linear_638_412)"/>
<path d="M891.353 200.751V199.483H887.38V195.193H885.985V199.483H882.012V200.751H885.985V205.189H887.38V200.751H891.353ZM911.003 207.239V193.143H908.889V199.061H901.091V193.143H898.978V207.239H901.091V200.942H908.889V207.239H911.003ZM913.45 202.125C913.45 205.337 915.69 207.493 918.733 207.493C920.382 207.493 921.819 206.965 922.833 205.971L921.945 204.724C921.185 205.506 920.001 205.929 918.923 205.929C916.873 205.929 915.605 204.492 915.458 202.759H923.531V202.294C923.531 199.166 921.628 196.778 918.564 196.778C915.584 196.778 913.45 199.166 913.45 202.125ZM918.564 198.342C920.72 198.342 921.628 200.033 921.671 201.385H915.436C915.542 199.991 916.514 198.342 918.564 198.342ZM934.109 207.239V200.35C934.109 197.75 932.228 196.778 930.009 196.778C928.361 196.778 926.966 197.328 925.825 198.448L926.649 199.758C927.558 198.849 928.551 198.406 929.714 198.406C931.172 198.406 932.207 199.166 932.207 200.434V202.125C931.425 201.216 930.242 200.772 928.868 200.772C927.156 200.772 925.318 201.787 925.318 204.112C925.318 206.352 927.177 207.493 928.868 207.493C930.242 207.493 931.404 207.007 932.207 206.119V207.239H934.109ZM932.207 204.999C931.637 205.76 930.643 206.161 929.587 206.161C928.213 206.161 927.241 205.337 927.241 204.133C927.241 202.928 928.213 202.104 929.587 202.104C930.643 202.104 931.637 202.505 932.207 203.266V204.999ZM946.329 207.239V193.143H944.427V198.511C943.603 197.412 942.398 196.778 941.088 196.778C938.425 196.778 936.523 198.87 936.523 202.146C936.523 205.485 938.425 207.493 941.088 207.493C942.441 207.493 943.666 206.795 944.427 205.781V207.239H946.329ZM944.427 204.323C943.899 205.147 942.758 205.802 941.595 205.802C939.693 205.802 938.51 204.259 938.51 202.146C938.51 200.012 939.693 198.469 941.595 198.469C942.758 198.469 943.899 199.145 944.427 199.969V204.323ZM953.898 207.493C957.089 207.493 959.054 205.084 959.054 202.125C959.054 199.187 957.089 196.778 953.898 196.778C950.728 196.778 948.741 199.187 948.741 202.125C948.741 205.084 950.728 207.493 953.898 207.493ZM953.898 205.802C951.869 205.802 950.728 204.069 950.728 202.125C950.728 200.202 951.869 198.469 953.898 198.469C955.947 198.469 957.068 200.202 957.068 202.125C957.068 204.069 955.947 205.802 953.898 205.802ZM970.26 207.239V197.032H968.358V204.365C967.788 205.126 966.71 205.802 965.526 205.802C964.216 205.802 963.371 205.295 963.371 203.604V197.032H961.469V204.238C961.469 206.394 962.547 207.493 964.723 207.493C966.287 207.493 967.576 206.69 968.358 205.844V207.239H970.26ZM976.085 207.493C977.078 207.493 977.67 207.218 978.071 206.838L977.585 205.401C977.395 205.612 976.993 205.802 976.55 205.802C975.894 205.802 975.556 205.274 975.556 204.555V198.701H977.627V197.032H975.556V194.242H973.654V197.032H971.964V198.701H973.654V204.978C973.654 206.584 974.478 207.493 976.085 207.493ZM984.633 200.202C984.633 204.598 987.908 207.514 991.945 207.514C994.333 207.514 996.277 206.521 997.63 205.02V199.843H990.994V201.702H995.516V204.238C994.84 204.872 993.509 205.633 991.945 205.633C989.007 205.633 986.809 203.351 986.809 200.202C986.809 197.032 989.007 194.792 991.945 194.792C993.593 194.792 995.009 195.616 995.812 196.694L997.524 195.7C996.34 194.115 994.586 192.911 991.945 192.911C987.908 192.911 984.633 195.806 984.633 200.202ZM1004.81 207.493C1008 207.493 1009.97 205.084 1009.97 202.125C1009.97 199.187 1008 196.778 1004.81 196.778C1001.64 196.778 999.655 199.187 999.655 202.125C999.655 205.084 1001.64 207.493 1004.81 207.493ZM1004.81 205.802C1002.78 205.802 1001.64 204.069 1001.64 202.125C1001.64 200.202 1002.78 198.469 1004.81 198.469C1006.86 198.469 1007.98 200.202 1007.98 202.125C1007.98 204.069 1006.86 205.802 1004.81 205.802ZM1016.91 207.493C1020.1 207.493 1022.06 205.084 1022.06 202.125C1022.06 199.187 1020.1 196.778 1016.91 196.778C1013.74 196.778 1011.75 199.187 1011.75 202.125C1011.75 205.084 1013.74 207.493 1016.91 207.493ZM1016.91 205.802C1014.88 205.802 1013.74 204.069 1013.74 202.125C1013.74 200.202 1014.88 198.469 1016.91 198.469C1018.96 198.469 1020.08 200.202 1020.08 202.125C1020.08 204.069 1018.96 205.802 1016.91 205.802ZM1033.65 207.239V193.143H1031.75V198.511C1030.92 197.412 1029.72 196.778 1028.41 196.778C1025.74 196.778 1023.84 198.87 1023.84 202.146C1023.84 205.485 1025.74 207.493 1028.41 207.493C1029.76 207.493 1030.99 206.795 1031.75 205.781V207.239H1033.65ZM1031.75 204.323C1031.22 205.147 1030.08 205.802 1028.91 205.802C1027.01 205.802 1025.83 204.259 1025.83 202.146C1025.83 200.012 1027.01 198.469 1028.91 198.469C1030.08 198.469 1031.22 199.145 1031.75 199.969V204.323ZM1037.62 195.32C1038.3 195.32 1038.85 194.792 1038.85 194.115C1038.85 193.439 1038.3 192.89 1037.62 192.89C1036.97 192.89 1036.4 193.439 1036.4 194.115C1036.4 194.792 1036.97 195.32 1037.62 195.32ZM1038.6 207.239V197.032H1036.69V207.239H1038.6ZM1040.99 202.125C1040.99 205.337 1043.23 207.493 1046.28 207.493C1047.92 207.493 1049.36 206.965 1050.38 205.971L1049.49 204.724C1048.73 205.506 1047.54 205.929 1046.47 205.929C1044.42 205.929 1043.15 204.492 1043 202.759H1051.07V202.294C1051.07 199.166 1049.17 196.778 1046.11 196.778C1043.13 196.778 1040.99 199.166 1040.99 202.125ZM1046.11 198.342C1048.26 198.342 1049.17 200.033 1049.21 201.385H1042.98C1043.09 199.991 1044.06 198.342 1046.11 198.342ZM1052.57 205.908C1053.6 206.965 1055.1 207.493 1056.81 207.493C1059.5 207.493 1060.93 206.119 1060.93 204.365C1060.93 202.019 1058.82 201.533 1057.05 201.132C1055.78 200.836 1054.68 200.54 1054.68 199.652C1054.68 198.828 1055.48 198.321 1056.77 198.321C1058.06 198.321 1059.2 198.849 1059.79 199.568L1060.64 198.236C1059.77 197.412 1058.5 196.778 1056.75 196.778C1054.26 196.778 1052.86 198.173 1052.86 199.8C1052.86 201.998 1054.89 202.463 1056.62 202.865C1057.93 203.161 1059.1 203.499 1059.1 204.513C1059.1 205.38 1058.33 205.971 1056.9 205.971C1055.52 205.971 1054.17 205.274 1053.47 204.513L1052.57 205.908ZM1075.61 207.239C1078.21 207.239 1079.69 205.654 1079.69 203.435C1079.69 201.723 1078.47 200.202 1076.97 199.969C1078.25 199.695 1079.42 198.511 1079.42 196.736C1079.42 194.686 1077.96 193.143 1075.44 193.143H1068.83V207.239H1075.61ZM1070.94 195.003H1075.04C1076.46 195.003 1077.24 195.912 1077.24 197.074C1077.24 198.236 1076.46 199.124 1075.04 199.124H1070.94V195.003ZM1070.94 200.984H1075.15C1076.71 200.984 1077.51 201.998 1077.51 203.161C1077.51 204.534 1076.63 205.38 1075.15 205.38H1070.94V200.984ZM1090.46 207.239V200.35C1090.46 197.75 1088.58 196.778 1086.36 196.778C1084.71 196.778 1083.32 197.328 1082.18 198.448L1083 199.758C1083.91 198.849 1084.91 198.406 1086.07 198.406C1087.53 198.406 1088.56 199.166 1088.56 200.434V202.125C1087.78 201.216 1086.6 200.772 1085.22 200.772C1083.51 200.772 1081.67 201.787 1081.67 204.112C1081.67 206.352 1083.53 207.493 1085.22 207.493C1086.6 207.493 1087.76 207.007 1088.56 206.119V207.239H1090.46ZM1088.56 204.999C1087.99 205.76 1087 206.161 1085.94 206.161C1084.57 206.161 1083.59 205.337 1083.59 204.133C1083.59 202.928 1084.57 202.104 1085.94 202.104C1087 202.104 1087.99 202.505 1088.56 203.266V204.999ZM1093.43 209.86C1094.65 211.022 1095.9 211.381 1097.61 211.381C1100.13 211.381 1102.68 210.346 1102.68 206.838V197.032H1100.78V198.511C1099.96 197.412 1098.75 196.778 1097.42 196.778C1094.78 196.778 1092.88 198.765 1092.88 202.04C1092.88 205.38 1094.78 207.324 1097.42 207.324C1098.79 207.324 1100 206.584 1100.78 205.57V206.901C1100.78 209.057 1099.2 209.818 1097.61 209.818C1096.22 209.818 1095.18 209.437 1094.34 208.465L1093.43 209.86ZM1100.78 204.112C1100.25 204.936 1099.09 205.633 1097.95 205.633C1096.05 205.633 1094.86 204.154 1094.86 202.04C1094.86 199.948 1096.05 198.469 1097.95 198.469C1099.09 198.469 1100.25 199.145 1100.78 199.969V204.112ZM1104.82 205.908C1105.86 206.965 1107.36 207.493 1109.07 207.493C1111.75 207.493 1113.19 206.119 1113.19 204.365C1113.19 202.019 1111.08 201.533 1109.3 201.132C1108.03 200.836 1106.93 200.54 1106.93 199.652C1106.93 198.828 1107.74 198.321 1109.03 198.321C1110.32 198.321 1111.46 198.849 1112.05 199.568L1112.89 198.236C1112.03 197.412 1110.76 196.778 1109.01 196.778C1106.51 196.778 1105.12 198.173 1105.12 199.8C1105.12 201.998 1107.15 202.463 1108.88 202.865C1110.19 203.161 1111.35 203.499 1111.35 204.513C1111.35 205.38 1110.59 205.971 1109.15 205.971C1107.78 205.971 1106.43 205.274 1105.73 204.513L1104.82 205.908Z" fill="url(#paint5_linear_638_412)"/>
<path d="M306.265 62.4551H148.499C144.036 62.4551 140.419 65.1835 140.419 68.5492V95.4942C140.419 98.8599 144.036 101.588 148.499 101.588H306.265C310.727 101.588 314.344 98.8599 314.344 95.4942V68.5492C314.344 65.1835 310.727 62.4551 306.265 62.4551Z" fill="#FF007A"/>
<path d="M708.523 62.4551H550.756C546.294 62.4551 542.677 65.1835 542.677 68.5492V95.4942C542.677 98.8599 546.294 101.588 550.756 101.588H708.523C712.985 101.588 716.602 98.8599 716.602 95.4942V68.5492C716.602 65.1835 712.985 62.4551 708.523 62.4551Z" fill="#FF007A"/>
<path d="M1106.13 62.4551H948.364C943.902 62.4551 940.284 65.1835 940.284 68.5492V95.4942C940.284 98.8599 943.902 101.588 948.364 101.588H1106.13C1110.59 101.588 1114.21 98.8599 1114.21 95.4942V68.5492C1114.21 65.1835 1110.59 62.4551 1106.13 62.4551Z" fill="#FF007A"/>
<path d="M178.131 88.2437C178.131 89.3971 178.131 90.118 178.11 91.0654H181.221C181.2 90.221 181.2 89.3765 181.2 88.1819V79.0371C181.2 77.9867 181.2 77.204 181.221 76.442H176.751C175.412 77.6778 173.456 79.552 172.179 80.6642V84.248L172.199 84.2686L176.01 80.726C176.586 80.2111 177.142 79.6962 177.657 79.2431H178.131V88.2437ZM189.089 91.3126C193.27 91.3126 194.382 90.3034 194.382 87.4817C194.382 85.3396 193.662 84.3716 189.481 83.7949C187.03 83.4448 186.659 83.1358 186.659 82.3119C186.659 81.3851 187.174 81.0556 188.677 81.0556C190.572 81.0556 191.025 81.4263 191.025 82.4355V82.7239L193.95 82.6621C193.95 79.861 193.105 78.79 188.739 78.79C184.949 78.79 183.714 79.8404 183.714 82.4561C183.714 84.8247 184.496 85.5662 188.162 86.1429C191.005 86.5754 191.314 86.9873 191.314 87.7288C191.314 88.6351 190.86 89.0264 189.13 89.0264C186.885 89.0264 186.391 88.6556 186.391 87.3787V87.1109L183.508 87.1727C183.508 90.4887 184.62 91.3126 189.089 91.3126ZM197.096 82.7857C197.096 84.6393 197.075 86.4518 197.075 87.667C197.075 90.324 198.002 91.1478 201.277 91.1478C202.019 91.1478 202.595 91.1272 203.378 91.0654L203.357 88.4909C202.781 88.5115 202.472 88.5321 202.039 88.5321C200.35 88.5321 200.124 88.2437 200.124 86.8226V81.6117H203.357V79.0371H200.124C200.124 78.0485 200.124 77.3688 200.144 76.6685L197.075 76.7509C197.096 77.3894 197.096 78.1927 197.096 79.0371H195.263V81.6117H197.096V82.7857ZM214.68 88.2437V86.7402C216.163 86.7402 217.996 86.7402 219.438 86.7402C223.289 86.7402 224.731 85.2778 224.731 81.5911V81.5087C224.731 77.8219 223.289 76.442 219.438 76.442H211.549C211.57 77.307 211.57 77.9867 211.57 79.0371V88.2437C211.57 89.4177 211.57 90.118 211.549 91.0654H214.7C214.68 90.118 214.68 89.3971 214.68 88.2437ZM218.984 79.0989C220.859 79.0989 221.538 79.655 221.538 81.5499V81.5911C221.538 83.4653 220.859 84.0626 218.984 84.0626H214.68V79.0989H218.984ZM238.034 91.0654V88.2437C236.386 88.2643 234.821 88.2643 233.379 88.2643H230.208V79.0577C230.208 78.0073 230.208 77.2246 230.228 76.442H227.077C227.097 77.2246 227.097 78.0279 227.097 79.1195V88.1819C227.097 89.3559 227.097 90.2416 227.077 91.0654H238.034ZM244.202 76.442C243.131 79.552 240 88.2643 238.929 91.0654H242.266L243.172 88.3055H249.907L250.793 91.0654H254.232C253.203 88.2643 250.154 79.552 249.104 76.442H244.202ZM244.49 84.3304C245.046 82.5385 245.623 80.726 246.097 79.2431H247.024C247.497 80.7054 248.054 82.5179 248.61 84.2892L249.063 85.7104H244.037L244.49 84.3304ZM261.823 91.3538C267.157 91.3538 268.867 89.9532 268.825 85.3602L265.756 85.2778C265.756 87.77 265.118 88.5733 261.864 88.5733C258.712 88.5733 257.889 87.6876 257.889 83.8361V83.6713C257.889 79.9022 258.712 78.9547 261.864 78.9547C265.139 78.9547 265.736 79.7168 265.736 82.2296L268.805 82.1472C268.846 77.4924 267.157 76.1536 261.823 76.1536C256.509 76.1536 254.696 77.8631 254.696 83.4242V84.0832C254.696 89.6237 256.509 91.3538 261.823 91.3538ZM271.388 88.2231C271.388 89.3971 271.388 90.2622 271.367 91.0654H282.984V88.4085C281.336 88.4291 278.102 88.4291 275.96 88.4291H274.498V84.8865H276.084C277.732 84.8865 280.594 84.8865 281.748 84.9071V82.3531H274.498V79.0783H275.857C277.896 79.0783 281.171 79.0783 282.613 79.0989V76.442H271.367C271.388 77.204 271.388 78.0279 271.388 79.0989V88.2231Z" fill="white"/>
<path d="M587.37 91.0654V88.4497C586.443 88.4703 585.187 88.4703 583.745 88.4703H577.978V87.7288C577.978 86.4106 578.411 86.1017 581.377 85.731C586.196 85.216 587.329 84.1038 587.329 80.8496V80.7672C587.329 77.3482 585.867 76.1536 581.171 76.1536C576.289 76.1536 575.012 77.5336 575.053 80.9114V81.2203L578.122 81.3027V80.7672C578.122 79.2637 578.823 78.7488 581.171 78.7488C583.683 78.7488 584.239 79.2637 584.239 80.7878V80.8496C584.239 82.2708 583.766 82.8681 580.635 83.2388C575.713 83.8155 574.93 84.7423 574.93 87.4817V91.0654H587.37ZM589.847 88.2849C589.847 89.4589 589.847 90.0974 589.827 91.0654H592.916C592.895 90.118 592.895 89.5413 592.895 88.3879V84.8453C592.895 82.1266 593.554 81.5705 595.429 81.5705C597.282 81.5705 597.859 82.1266 597.859 84.4334V88.3879C597.859 89.5825 597.859 90.118 597.839 91.0654H600.907C600.887 90.015 600.887 89.3147 600.887 88.3673V85.8545C600.887 84.248 600.907 83.4242 600.907 82.8063C600.907 79.9434 599.775 78.79 596.932 78.79C594.811 78.79 593.493 79.4284 592.751 81.0762L592.731 79.0371H589.827C589.847 79.9228 589.847 80.5818 589.847 81.5911V88.2849ZM607.924 91.3126C610.005 91.3126 611.302 90.4681 612.002 88.9646L612.044 91.0654H614.927C614.907 90.2416 614.907 89.3971 614.907 88.2231V78.584C614.907 77.3482 614.907 76.4214 614.927 75.6593H611.817C611.838 76.5244 611.858 78.687 611.858 80.8084C611.137 79.4902 609.922 78.79 608.027 78.79C604.65 78.79 603.187 80.0669 603.187 84.7423V85.3602C603.187 90.0356 604.608 91.3126 607.924 91.3126ZM609.098 88.5115C606.956 88.5115 606.277 87.8936 606.277 85.1131V84.9895C606.277 82.209 606.956 81.5705 609.181 81.5705C611.179 81.5705 611.879 82.1884 611.879 84.9277V85.1749C611.879 87.8936 611.179 88.5115 609.098 88.5115ZM627.054 88.2437V86.7402C628.537 86.7402 630.37 86.7402 631.812 86.7402C635.663 86.7402 637.105 85.2778 637.105 81.5911V81.5087C637.105 77.8219 635.663 76.442 631.812 76.442H623.923C623.944 77.307 623.944 77.9867 623.944 79.0371V88.2437C623.944 89.4177 623.944 90.118 623.923 91.0654H627.074C627.054 90.118 627.054 89.3971 627.054 88.2437ZM631.358 79.0989C633.233 79.0989 633.912 79.655 633.912 81.5499V81.5911C633.912 83.4653 633.233 84.0626 631.358 84.0626H627.054V79.0989H631.358ZM650.408 91.0654V88.2437C648.76 88.2643 647.195 88.2643 645.753 88.2643H642.582V79.0577C642.582 78.0073 642.582 77.2246 642.602 76.442H639.451C639.471 77.2246 639.471 78.0279 639.471 79.1195V88.1819C639.471 89.3559 639.471 90.2416 639.451 91.0654H650.408ZM656.576 76.442C655.505 79.552 652.374 88.2643 651.303 91.0654H654.64L655.546 88.3055H662.281L663.167 91.0654H666.606C665.577 88.2643 662.528 79.552 661.478 76.442H656.576ZM656.864 84.3304C657.42 82.5385 657.997 80.726 658.471 79.2431H659.398C659.871 80.7054 660.428 82.5179 660.984 84.2892L661.437 85.7104H656.411L656.864 84.3304ZM674.197 91.3538C679.531 91.3538 681.241 89.9532 681.199 85.3602L678.13 85.2778C678.13 87.77 677.492 88.5733 674.238 88.5733C671.087 88.5733 670.263 87.6876 670.263 83.8361V83.6713C670.263 79.9022 671.087 78.9547 674.238 78.9547C677.513 78.9547 678.11 79.7168 678.11 82.2296L681.179 82.1472C681.22 77.4924 679.531 76.1536 674.197 76.1536C668.883 76.1536 667.07 77.8631 667.07 83.4242V84.0832C667.07 89.6237 668.883 91.3538 674.197 91.3538ZM683.762 88.2231C683.762 89.3971 683.762 90.2622 683.741 91.0654H695.358V88.4085C693.71 88.4291 690.476 88.4291 688.334 88.4291H686.872V84.8865H688.458C690.106 84.8865 692.968 84.8865 694.122 84.9071V82.3531H686.872V79.0783H688.231C690.27 79.0783 693.545 79.0783 694.987 79.0989V76.442H683.741C683.762 77.204 683.762 78.0279 683.762 79.0989V88.2231Z" fill="white"/>
<path d="M984.917 87.1933V87.1109C984.917 85.216 984.237 84.1244 982.28 83.5889C984.052 83.0122 984.67 81.9206 984.67 80.1699V80.0875C984.67 77.3688 983.516 76.1536 978.655 76.1536C973.589 76.1536 972.456 77.4512 972.497 80.9938L975.566 81.0762V80.6436C975.566 79.2843 976.101 78.7076 978.655 78.7076C981.065 78.7076 981.58 79.2843 981.58 80.5201V80.6024C981.58 81.8176 980.942 82.3943 978.429 82.3943H976.925V84.9071H978.491C981.127 84.9071 981.827 85.4014 981.827 86.8226V86.8638C981.827 88.2231 981.333 88.7586 978.676 88.7586C975.978 88.7586 975.484 88.2231 975.484 86.7196V86.3283L972.415 86.4106C972.394 90.3446 973.321 91.3332 978.676 91.3332C983.702 91.3332 984.917 90.221 984.917 87.1933ZM987.335 88.2849C987.335 89.4589 987.335 90.0974 987.314 91.0654H990.404C990.383 90.118 990.383 89.5413 990.383 88.3879V85.0513C990.383 82.0854 991.063 81.5705 992.484 81.5705C993.885 81.5705 994.214 81.9618 994.214 83.3418V84.4746L997.139 84.4334C997.159 83.7537 997.159 82.9916 997.159 82.3943C997.159 79.6756 996.335 78.79 993.885 78.79C992.051 78.79 990.898 79.5314 990.239 81.0968L990.218 79.0371H987.314C987.335 79.9228 987.335 80.5818 987.335 81.5911V88.2849ZM1003.38 91.3126C1005.46 91.3126 1006.76 90.4681 1007.46 88.9646L1007.5 91.0654H1010.38C1010.36 90.2416 1010.36 89.3971 1010.36 88.2231V78.584C1010.36 77.3482 1010.36 76.4214 1010.38 75.6593H1007.27C1007.29 76.5244 1007.31 78.687 1007.31 80.8084C1006.59 79.4902 1005.38 78.79 1003.48 78.79C1000.11 78.79 998.643 80.0669 998.643 84.7423V85.3602C998.643 90.0356 1000.06 91.3126 1003.38 91.3126ZM1004.55 88.5115C1002.41 88.5115 1001.73 87.8936 1001.73 85.1131V84.9895C1001.73 82.209 1002.41 81.5705 1004.64 81.5705C1006.63 81.5705 1007.34 82.1884 1007.34 84.9277V85.1749C1007.34 87.8936 1006.63 88.5115 1004.55 88.5115ZM1022.51 88.2437V86.7402C1023.99 86.7402 1025.83 86.7402 1027.27 86.7402C1031.12 86.7402 1032.56 85.2778 1032.56 81.5911V81.5087C1032.56 77.8219 1031.12 76.442 1027.27 76.442H1019.38C1019.4 77.307 1019.4 77.9867 1019.4 79.0371V88.2437C1019.4 89.4177 1019.4 90.118 1019.38 91.0654H1022.53C1022.51 90.118 1022.51 89.3971 1022.51 88.2437ZM1026.81 79.0989C1028.69 79.0989 1029.37 79.655 1029.37 81.5499V81.5911C1029.37 83.4653 1028.69 84.0626 1026.81 84.0626H1022.51V79.0989H1026.81ZM1045.86 91.0654V88.2437C1044.22 88.2643 1042.65 88.2643 1041.21 88.2643H1038.04V79.0577C1038.04 78.0073 1038.04 77.2246 1038.06 76.442H1034.91C1034.93 77.2246 1034.93 78.0279 1034.93 79.1195V88.1819C1034.93 89.3559 1034.93 90.2416 1034.91 91.0654H1045.86ZM1052.03 76.442C1050.96 79.552 1047.83 88.2643 1046.76 91.0654H1050.1L1051 88.3055H1057.74L1058.62 91.0654H1062.06C1061.03 88.2643 1057.98 79.552 1056.93 76.442H1052.03ZM1052.32 84.3304C1052.88 82.5385 1053.45 80.726 1053.93 79.2431H1054.85C1055.33 80.7054 1055.88 82.5179 1056.44 84.2892L1056.89 85.7104H1051.87L1052.32 84.3304ZM1069.65 91.3538C1074.99 91.3538 1076.7 89.9532 1076.66 85.3602L1073.59 85.2778C1073.59 87.77 1072.95 88.5733 1069.69 88.5733C1066.54 88.5733 1065.72 87.6876 1065.72 83.8361V83.6713C1065.72 79.9022 1066.54 78.9547 1069.69 78.9547C1072.97 78.9547 1073.57 79.7168 1073.57 82.2296L1076.64 82.1472C1076.68 77.4924 1074.99 76.1536 1069.65 76.1536C1064.34 76.1536 1062.53 77.8631 1062.53 83.4242V84.0832C1062.53 89.6237 1064.34 91.3538 1069.65 91.3538ZM1079.22 88.2231C1079.22 89.3971 1079.22 90.2622 1079.2 91.0654H1090.81V88.4085C1089.17 88.4291 1085.93 88.4291 1083.79 88.4291H1082.33V84.8865H1083.91C1085.56 84.8865 1088.42 84.8865 1089.58 84.9071V82.3531H1082.33V79.0783H1083.69C1085.73 79.0783 1089 79.0783 1090.44 79.0989V76.442H1079.2C1079.22 77.204 1079.22 78.0279 1079.22 79.0989V88.2231Z" fill="white"/>
<defs>
<linearGradient id="paint0_linear_638_412" x1="120.285" y1="129.934" x2="309.33" y2="200.328" gradientUnits="userSpaceOnUse">
<stop stop-color="#0E081C"/>
<stop offset="1" stop-color="#0E081C"/>
</linearGradient>
<linearGradient id="paint1_linear_638_412" x1="218.7" y1="129.886" x2="507.44" y2="405.759" gradientUnits="userSpaceOnUse">
<stop stop-color="#0E081C"/>
<stop offset="1" stop-color="#0E081C"/>
</linearGradient>
<linearGradient id="paint2_linear_638_412" x1="616.307" y1="129.886" x2="905.046" y2="405.759" gradientUnits="userSpaceOnUse">
<stop stop-color="#0E081C"/>
<stop offset="1" stop-color="#0E081C"/>
</linearGradient>
<linearGradient id="paint3_linear_638_412" x1="46.0283" y1="187.234" x2="176.906" y2="334.995" gradientUnits="userSpaceOnUse">
<stop stop-color="#0E081C"/>
<stop offset="1" stop-color="#0E081C"/>
</linearGradient>
<linearGradient id="paint4_linear_638_412" x1="448.119" y1="187.239" x2="578.997" y2="335" gradientUnits="userSpaceOnUse">
<stop stop-color="#0E081C"/>
<stop offset="1" stop-color="#0E081C"/>
</linearGradient>
<linearGradient id="paint5_linear_638_412" x1="845.727" y1="187.239" x2="976.605" y2="335" gradientUnits="userSpaceOnUse">
<stop stop-color="#0E081C"/>
<stop offset="1" stop-color="#0E081C"/>
</linearGradient>
</defs>
</svg>
