<svg width="384" height="230" viewBox="0 0 384 230" fill="none" xmlns="http://www.w3.org/2000/svg">
<g clip-path="url(#clip0)">
<rect width="384" height="230" rx="8" fill="white"/>
<circle cx="338.5" cy="26.5" r="137.5" fill="url(#paint0_linear)"/>
<g clip-path="url(#clip1)">
<path d="M144.313 17L89.6208 235.287H199L144.313 17Z" fill="#ECD9FF"/>
<path d="M92.279 85.4246L56 235.286H128.553L92.279 85.4246Z" fill="#FFE5F2"/>
<path d="M92.2791 132.842V235.287" stroke="white" stroke-width="3" stroke-miterlimit="10" stroke-linecap="round"/>
<path d="M144.313 79.3989V235.287" stroke="white" stroke-width="3" stroke-miterlimit="10" stroke-linecap="round"/>
<path d="M92.2791 171.114L101.904 161.488" stroke="white" stroke-width="3" stroke-miterlimit="10" stroke-linecap="round"/>
<path d="M92.2791 212.691L77.3091 197.719" stroke="white" stroke-width="3" stroke-miterlimit="10" stroke-linecap="round"/>
<path d="M144.313 123.934L133.366 112.986" stroke="white" stroke-width="3" stroke-miterlimit="10" stroke-linecap="round"/>
<path d="M144.313 186.951L166.121 165.14" stroke="white" stroke-width="3" stroke-miterlimit="10" stroke-linecap="round"/>
</g>
<path d="M25.076 196.628V192.668H26.912V196.628H30.872V198.464H26.912V202.424H25.076V198.464H21.116V196.628H25.076ZM38.7365 190.256H41.0045V195.332H46.9625V190.256H49.2305V203H46.9625V197.384H41.0045V203H38.7365V190.256ZM53.6083 199.436C53.6803 200.084 53.9323 200.588 54.3643 200.948C54.7963 201.308 55.3183 201.488 55.9303 201.488C56.4703 201.488 56.9203 201.38 57.2803 201.164C57.6523 200.936 57.9763 200.654 58.2523 200.318L59.8003 201.488C59.2963 202.112 58.7323 202.556 58.1083 202.82C57.4843 203.084 56.8303 203.216 56.1463 203.216C55.4983 203.216 54.8863 203.108 54.3103 202.892C53.7343 202.676 53.2363 202.37 52.8163 201.974C52.3963 201.578 52.0603 201.104 51.8083 200.552C51.5683 199.988 51.4483 199.364 51.4483 198.68C51.4483 197.996 51.5683 197.378 51.8083 196.826C52.0603 196.262 52.3963 195.782 52.8163 195.386C53.2363 194.99 53.7343 194.684 54.3103 194.468C54.8863 194.252 55.4983 194.144 56.1463 194.144C56.7463 194.144 57.2923 194.252 57.7843 194.468C58.2883 194.672 58.7143 194.972 59.0623 195.368C59.4223 195.764 59.6983 196.256 59.8903 196.844C60.0943 197.42 60.1963 198.086 60.1963 198.842V199.436H53.6083ZM58.0363 197.816C58.0243 197.18 57.8263 196.682 57.4423 196.322C57.0583 195.95 56.5243 195.764 55.8403 195.764C55.1923 195.764 54.6763 195.95 54.2923 196.322C53.9203 196.694 53.6923 197.192 53.6083 197.816H58.0363ZM67.6162 201.812H67.5622C67.2502 202.304 66.8542 202.664 66.3742 202.892C65.8942 203.108 65.3662 203.216 64.7902 203.216C64.3942 203.216 64.0042 203.162 63.6202 203.054C63.2482 202.946 62.9122 202.784 62.6122 202.568C62.3242 202.352 62.0902 202.082 61.9102 201.758C61.7302 201.434 61.6402 201.056 61.6402 200.624C61.6402 200.156 61.7242 199.76 61.8922 199.436C62.0602 199.1 62.2822 198.824 62.5582 198.608C62.8462 198.38 63.1762 198.2 63.5482 198.068C63.9202 197.936 64.3042 197.84 64.7002 197.78C65.1082 197.708 65.5162 197.666 65.9242 197.654C66.3322 197.63 66.7162 197.618 67.0762 197.618H67.6162V197.384C67.6162 196.844 67.4302 196.442 67.0582 196.178C66.6862 195.902 66.2122 195.764 65.6362 195.764C65.1802 195.764 64.7542 195.848 64.3582 196.016C63.9622 196.172 63.6202 196.388 63.3322 196.664L62.1982 195.53C62.6782 195.038 63.2362 194.684 63.8722 194.468C64.5202 194.252 65.1862 194.144 65.8702 194.144C66.4822 194.144 66.9982 194.216 67.4182 194.36C67.8382 194.492 68.1862 194.666 68.4622 194.882C68.7382 195.098 68.9482 195.35 69.0922 195.638C69.2482 195.914 69.3562 196.196 69.4162 196.484C69.4882 196.772 69.5302 197.054 69.5422 197.33C69.5542 197.594 69.5602 197.828 69.5602 198.032V203H67.6162V201.812ZM67.4902 199.13H67.0402C66.7402 199.13 66.4042 199.142 66.0322 199.166C65.6602 199.19 65.3062 199.25 64.9702 199.346C64.6462 199.43 64.3702 199.562 64.1422 199.742C63.9142 199.91 63.8002 200.15 63.8002 200.462C63.8002 200.666 63.8422 200.84 63.9262 200.984C64.0222 201.116 64.1422 201.23 64.2862 201.326C64.4302 201.422 64.5922 201.494 64.7722 201.542C64.9522 201.578 65.1322 201.596 65.3122 201.596C66.0562 201.596 66.6022 201.422 66.9502 201.074C67.3102 200.714 67.4902 200.228 67.4902 199.616V199.13ZM78.7242 201.704H78.6882C78.3762 202.232 77.9562 202.616 77.4282 202.856C76.9002 203.096 76.3302 203.216 75.7182 203.216C75.0462 203.216 74.4462 203.102 73.9182 202.874C73.4022 202.634 72.9582 202.31 72.5862 201.902C72.2142 201.494 71.9322 201.014 71.7402 200.462C71.5482 199.91 71.4522 199.316 71.4522 198.68C71.4522 198.044 71.5542 197.45 71.7582 196.898C71.9622 196.346 72.2442 195.866 72.6042 195.458C72.9762 195.05 73.4202 194.732 73.9362 194.504C74.4522 194.264 75.0162 194.144 75.6282 194.144C76.0362 194.144 76.3962 194.186 76.7082 194.27C77.0202 194.354 77.2962 194.462 77.5362 194.594C77.7762 194.726 77.9802 194.87 78.1482 195.026C78.3162 195.17 78.4542 195.314 78.5622 195.458H78.6162V189.392H80.7762V203H78.7242V201.704ZM73.6122 198.68C73.6122 199.016 73.6662 199.34 73.7742 199.652C73.8942 199.964 74.0622 200.24 74.2782 200.48C74.5062 200.72 74.7762 200.912 75.0882 201.056C75.4002 201.2 75.7542 201.272 76.1502 201.272C76.5462 201.272 76.9002 201.2 77.2122 201.056C77.5242 200.912 77.7882 200.72 78.0042 200.48C78.2322 200.24 78.4002 199.964 78.5082 199.652C78.6282 199.34 78.6882 199.016 78.6882 198.68C78.6882 198.344 78.6282 198.02 78.5082 197.708C78.4002 197.396 78.2322 197.12 78.0042 196.88C77.7882 196.64 77.5242 196.448 77.2122 196.304C76.9002 196.16 76.5462 196.088 76.1502 196.088C75.7542 196.088 75.4002 196.16 75.0882 196.304C74.7762 196.448 74.5062 196.64 74.2782 196.88C74.0622 197.12 73.8942 197.396 73.7742 197.708C73.6662 198.02 73.6122 198.344 73.6122 198.68ZM82.79 198.68C82.79 197.996 82.91 197.378 83.15 196.826C83.402 196.262 83.738 195.782 84.158 195.386C84.578 194.99 85.076 194.684 85.652 194.468C86.228 194.252 86.84 194.144 87.488 194.144C88.136 194.144 88.748 194.252 89.324 194.468C89.9 194.684 90.398 194.99 90.818 195.386C91.238 195.782 91.568 196.262 91.808 196.826C92.06 197.378 92.186 197.996 92.186 198.68C92.186 199.364 92.06 199.988 91.808 200.552C91.568 201.104 91.238 201.578 90.818 201.974C90.398 202.37 89.9 202.676 89.324 202.892C88.748 203.108 88.136 203.216 87.488 203.216C86.84 203.216 86.228 203.108 85.652 202.892C85.076 202.676 84.578 202.37 84.158 201.974C83.738 201.578 83.402 201.104 83.15 200.552C82.91 199.988 82.79 199.364 82.79 198.68ZM84.95 198.68C84.95 199.016 85.004 199.34 85.112 199.652C85.232 199.964 85.4 200.24 85.616 200.48C85.844 200.72 86.114 200.912 86.426 201.056C86.738 201.2 87.092 201.272 87.488 201.272C87.884 201.272 88.238 201.2 88.55 201.056C88.862 200.912 89.126 200.72 89.342 200.48C89.57 200.24 89.738 199.964 89.846 199.652C89.966 199.34 90.026 199.016 90.026 198.68C90.026 198.344 89.966 198.02 89.846 197.708C89.738 197.396 89.57 197.12 89.342 196.88C89.126 196.64 88.862 196.448 88.55 196.304C88.238 196.16 87.884 196.088 87.488 196.088C87.092 196.088 86.738 196.16 86.426 196.304C86.114 196.448 85.844 196.64 85.616 196.88C85.4 197.12 85.232 197.396 85.112 197.708C85.004 198.02 84.95 198.344 84.95 198.68ZM102.092 203H100.04V201.614H100.004C99.8004 202.046 99.4884 202.424 99.0684 202.748C98.6484 203.06 98.0784 203.216 97.3584 203.216C96.7824 203.216 96.2904 203.126 95.8824 202.946C95.4864 202.754 95.1624 202.502 94.9104 202.19C94.6584 201.866 94.4784 201.5 94.3704 201.092C94.2624 200.684 94.2084 200.258 94.2084 199.814V194.36H96.3684V198.734C96.3684 198.974 96.3804 199.244 96.4044 199.544C96.4284 199.832 96.4884 200.108 96.5844 200.372C96.6924 200.624 96.8484 200.84 97.0524 201.02C97.2684 201.188 97.5684 201.272 97.9524 201.272C98.3124 201.272 98.6124 201.212 98.8524 201.092C99.1044 200.972 99.3084 200.81 99.4644 200.606C99.6324 200.402 99.7524 200.168 99.8244 199.904C99.8964 199.64 99.9324 199.364 99.9324 199.076V194.36H102.092V203ZM103.536 196.196V194.36H105.318V191.858H107.478V194.36H109.854V196.196H107.478V199.976C107.478 200.408 107.556 200.75 107.712 201.002C107.88 201.254 108.204 201.38 108.684 201.38C108.876 201.38 109.086 201.362 109.314 201.326C109.542 201.278 109.722 201.206 109.854 201.11V202.928C109.626 203.036 109.344 203.108 109.008 203.144C108.684 203.192 108.396 203.216 108.144 203.216C107.568 203.216 107.094 203.15 106.722 203.018C106.362 202.898 106.074 202.712 105.858 202.46C105.654 202.196 105.51 201.872 105.426 201.488C105.354 201.104 105.318 200.66 105.318 200.156V196.196H103.536ZM128.387 202.064C126.815 202.904 125.057 203.324 123.113 203.324C122.129 203.324 121.223 203.168 120.395 202.856C119.579 202.532 118.871 202.082 118.271 201.506C117.683 200.918 117.221 200.216 116.885 199.4C116.549 198.584 116.381 197.678 116.381 196.682C116.381 195.662 116.549 194.738 116.885 193.91C117.221 193.07 117.683 192.356 118.271 191.768C118.871 191.18 119.579 190.73 120.395 190.418C121.223 190.094 122.129 189.932 123.113 189.932C124.085 189.932 124.997 190.052 125.849 190.292C126.701 190.52 127.463 190.934 128.135 191.534L126.461 193.226C126.053 192.83 125.555 192.524 124.967 192.308C124.391 192.092 123.779 191.984 123.131 191.984C122.471 191.984 121.871 192.104 121.331 192.344C120.803 192.572 120.347 192.896 119.963 193.316C119.579 193.724 119.279 194.204 119.063 194.756C118.859 195.308 118.757 195.902 118.757 196.538C118.757 197.222 118.859 197.852 119.063 198.428C119.279 199.004 119.579 199.502 119.963 199.922C120.347 200.342 120.803 200.672 121.331 200.912C121.871 201.152 122.471 201.272 123.131 201.272C123.707 201.272 124.247 201.218 124.751 201.11C125.267 201.002 125.723 200.834 126.119 200.606V197.6H123.509V195.548H128.387V202.064ZM130.444 198.68C130.444 197.996 130.564 197.378 130.804 196.826C131.056 196.262 131.392 195.782 131.812 195.386C132.232 194.99 132.73 194.684 133.306 194.468C133.882 194.252 134.494 194.144 135.142 194.144C135.79 194.144 136.402 194.252 136.978 194.468C137.554 194.684 138.052 194.99 138.472 195.386C138.892 195.782 139.222 196.262 139.462 196.826C139.714 197.378 139.84 197.996 139.84 198.68C139.84 199.364 139.714 199.988 139.462 200.552C139.222 201.104 138.892 201.578 138.472 201.974C138.052 202.37 137.554 202.676 136.978 202.892C136.402 203.108 135.79 203.216 135.142 203.216C134.494 203.216 133.882 203.108 133.306 202.892C132.73 202.676 132.232 202.37 131.812 201.974C131.392 201.578 131.056 201.104 130.804 200.552C130.564 199.988 130.444 199.364 130.444 198.68ZM132.604 198.68C132.604 199.016 132.658 199.34 132.766 199.652C132.886 199.964 133.054 200.24 133.27 200.48C133.498 200.72 133.768 200.912 134.08 201.056C134.392 201.2 134.746 201.272 135.142 201.272C135.538 201.272 135.892 201.2 136.204 201.056C136.516 200.912 136.78 200.72 136.996 200.48C137.224 200.24 137.392 199.964 137.5 199.652C137.62 199.34 137.68 199.016 137.68 198.68C137.68 198.344 137.62 198.02 137.5 197.708C137.392 197.396 137.224 197.12 136.996 196.88C136.78 196.64 136.516 196.448 136.204 196.304C135.892 196.16 135.538 196.088 135.142 196.088C134.746 196.088 134.392 196.16 134.08 196.304C133.768 196.448 133.498 196.64 133.27 196.88C133.054 197.12 132.886 197.396 132.766 197.708C132.658 198.02 132.604 198.344 132.604 198.68ZM141.431 198.68C141.431 197.996 141.551 197.378 141.791 196.826C142.043 196.262 142.379 195.782 142.799 195.386C143.219 194.99 143.717 194.684 144.293 194.468C144.869 194.252 145.481 194.144 146.129 194.144C146.777 194.144 147.389 194.252 147.965 194.468C148.541 194.684 149.039 194.99 149.459 195.386C149.879 195.782 150.209 196.262 150.449 196.826C150.701 197.378 150.827 197.996 150.827 198.68C150.827 199.364 150.701 199.988 150.449 200.552C150.209 201.104 149.879 201.578 149.459 201.974C149.039 202.37 148.541 202.676 147.965 202.892C147.389 203.108 146.777 203.216 146.129 203.216C145.481 203.216 144.869 203.108 144.293 202.892C143.717 202.676 143.219 202.37 142.799 201.974C142.379 201.578 142.043 201.104 141.791 200.552C141.551 199.988 141.431 199.364 141.431 198.68ZM143.591 198.68C143.591 199.016 143.645 199.34 143.753 199.652C143.873 199.964 144.041 200.24 144.257 200.48C144.485 200.72 144.755 200.912 145.067 201.056C145.379 201.2 145.733 201.272 146.129 201.272C146.525 201.272 146.879 201.2 147.191 201.056C147.503 200.912 147.767 200.72 147.983 200.48C148.211 200.24 148.379 199.964 148.487 199.652C148.607 199.34 148.667 199.016 148.667 198.68C148.667 198.344 148.607 198.02 148.487 197.708C148.379 197.396 148.211 197.12 147.983 196.88C147.767 196.64 147.503 196.448 147.191 196.304C146.879 196.16 146.525 196.088 146.129 196.088C145.733 196.088 145.379 196.16 145.067 196.304C144.755 196.448 144.485 196.64 144.257 196.88C144.041 197.12 143.873 197.396 143.753 197.708C143.645 198.02 143.591 198.344 143.591 198.68ZM159.689 201.704H159.653C159.341 202.232 158.921 202.616 158.393 202.856C157.865 203.096 157.295 203.216 156.683 203.216C156.011 203.216 155.411 203.102 154.883 202.874C154.367 202.634 153.923 202.31 153.551 201.902C153.179 201.494 152.897 201.014 152.705 200.462C152.513 199.91 152.417 199.316 152.417 198.68C152.417 198.044 152.519 197.45 152.723 196.898C152.927 196.346 153.209 195.866 153.569 195.458C153.941 195.05 154.385 194.732 154.901 194.504C155.417 194.264 155.981 194.144 156.593 194.144C157.001 194.144 157.361 194.186 157.673 194.27C157.985 194.354 158.261 194.462 158.501 194.594C158.741 194.726 158.945 194.87 159.113 195.026C159.281 195.17 159.419 195.314 159.527 195.458H159.581V189.392H161.741V203H159.689V201.704ZM154.577 198.68C154.577 199.016 154.631 199.34 154.739 199.652C154.859 199.964 155.027 200.24 155.243 200.48C155.471 200.72 155.741 200.912 156.053 201.056C156.365 201.2 156.719 201.272 157.115 201.272C157.511 201.272 157.865 201.2 158.177 201.056C158.489 200.912 158.753 200.72 158.969 200.48C159.197 200.24 159.365 199.964 159.473 199.652C159.593 199.34 159.653 199.016 159.653 198.68C159.653 198.344 159.593 198.02 159.473 197.708C159.365 197.396 159.197 197.12 158.969 196.88C158.753 196.64 158.489 196.448 158.177 196.304C157.865 196.16 157.511 196.088 157.115 196.088C156.719 196.088 156.365 196.16 156.053 196.304C155.741 196.448 155.471 196.64 155.243 196.88C155.027 197.12 154.859 197.396 154.739 197.708C154.631 198.02 154.577 198.344 154.577 198.68ZM164.24 194.36H166.4V203H164.24V194.36ZM163.934 191.426C163.934 191.078 164.06 190.778 164.312 190.526C164.576 190.262 164.906 190.13 165.302 190.13C165.698 190.13 166.028 190.256 166.292 190.508C166.568 190.748 166.706 191.054 166.706 191.426C166.706 191.798 166.568 192.11 166.292 192.362C166.028 192.602 165.698 192.722 165.302 192.722C164.906 192.722 164.576 192.596 164.312 192.344C164.06 192.08 163.934 191.774 163.934 191.426ZM170.608 199.436C170.68 200.084 170.932 200.588 171.364 200.948C171.796 201.308 172.318 201.488 172.93 201.488C173.47 201.488 173.92 201.38 174.28 201.164C174.652 200.936 174.976 200.654 175.252 200.318L176.8 201.488C176.296 202.112 175.732 202.556 175.108 202.82C174.484 203.084 173.83 203.216 173.146 203.216C172.498 203.216 171.886 203.108 171.31 202.892C170.734 202.676 170.236 202.37 169.816 201.974C169.396 201.578 169.06 201.104 168.808 200.552C168.568 199.988 168.448 199.364 168.448 198.68C168.448 197.996 168.568 197.378 168.808 196.826C169.06 196.262 169.396 195.782 169.816 195.386C170.236 194.99 170.734 194.684 171.31 194.468C171.886 194.252 172.498 194.144 173.146 194.144C173.746 194.144 174.292 194.252 174.784 194.468C175.288 194.672 175.714 194.972 176.062 195.368C176.422 195.764 176.698 196.256 176.89 196.844C177.094 197.42 177.196 198.086 177.196 198.842V199.436H170.608ZM175.036 197.816C175.024 197.18 174.826 196.682 174.442 196.322C174.058 195.95 173.524 195.764 172.84 195.764C172.192 195.764 171.676 195.95 171.292 196.322C170.92 196.694 170.692 197.192 170.608 197.816H175.036ZM184.74 190.256H189.708C190.188 190.256 190.662 190.316 191.13 190.436C191.598 190.544 192.012 190.73 192.372 190.994C192.744 191.246 193.044 191.576 193.272 191.984C193.5 192.392 193.614 192.884 193.614 193.46C193.614 194.18 193.41 194.774 193.002 195.242C192.594 195.71 192.06 196.046 191.4 196.25V196.286C191.796 196.334 192.162 196.448 192.498 196.628C192.846 196.796 193.14 197.018 193.38 197.294C193.62 197.558 193.806 197.87 193.938 198.23C194.082 198.578 194.154 198.956 194.154 199.364C194.154 200.06 194.016 200.642 193.74 201.11C193.464 201.566 193.098 201.938 192.642 202.226C192.198 202.502 191.682 202.7 191.094 202.82C190.518 202.94 189.93 203 189.33 203H184.74V190.256ZM187.008 195.44H189.078C189.834 195.44 190.398 195.296 190.77 195.008C191.154 194.708 191.346 194.318 191.346 193.838C191.346 193.286 191.148 192.878 190.752 192.614C190.368 192.338 189.744 192.2 188.88 192.2H187.008V195.44ZM187.008 201.056H189.096C189.384 201.056 189.69 201.038 190.014 201.002C190.35 200.966 190.656 200.882 190.932 200.75C191.208 200.618 191.436 200.432 191.616 200.192C191.796 199.94 191.886 199.604 191.886 199.184C191.886 198.512 191.664 198.044 191.22 197.78C190.788 197.516 190.11 197.384 189.186 197.384H187.008V201.056ZM201.614 201.812H201.56C201.248 202.304 200.852 202.664 200.372 202.892C199.892 203.108 199.364 203.216 198.788 203.216C198.392 203.216 198.002 203.162 197.618 203.054C197.246 202.946 196.91 202.784 196.61 202.568C196.322 202.352 196.088 202.082 195.908 201.758C195.728 201.434 195.638 201.056 195.638 200.624C195.638 200.156 195.722 199.76 195.89 199.436C196.058 199.1 196.28 198.824 196.556 198.608C196.844 198.38 197.174 198.2 197.546 198.068C197.918 197.936 198.302 197.84 198.698 197.78C199.106 197.708 199.514 197.666 199.922 197.654C200.33 197.63 200.714 197.618 201.074 197.618H201.614V197.384C201.614 196.844 201.428 196.442 201.056 196.178C200.684 195.902 200.21 195.764 199.634 195.764C199.178 195.764 198.752 195.848 198.356 196.016C197.96 196.172 197.618 196.388 197.33 196.664L196.196 195.53C196.676 195.038 197.234 194.684 197.87 194.468C198.518 194.252 199.184 194.144 199.868 194.144C200.48 194.144 200.996 194.216 201.416 194.36C201.836 194.492 202.184 194.666 202.46 194.882C202.736 195.098 202.946 195.35 203.09 195.638C203.246 195.914 203.354 196.196 203.414 196.484C203.486 196.772 203.528 197.054 203.54 197.33C203.552 197.594 203.558 197.828 203.558 198.032V203H201.614V201.812ZM201.488 199.13H201.038C200.738 199.13 200.402 199.142 200.03 199.166C199.658 199.19 199.304 199.25 198.968 199.346C198.644 199.43 198.368 199.562 198.14 199.742C197.912 199.91 197.798 200.15 197.798 200.462C197.798 200.666 197.84 200.84 197.924 200.984C198.02 201.116 198.14 201.23 198.284 201.326C198.428 201.422 198.59 201.494 198.77 201.542C198.95 201.578 199.13 201.596 199.31 201.596C200.054 201.596 200.6 201.422 200.948 201.074C201.308 200.714 201.488 200.228 201.488 199.616V199.13ZM214.774 194.36V202.226C214.774 203.006 214.678 203.708 214.486 204.332C214.294 204.968 213.994 205.502 213.586 205.934C213.19 206.378 212.686 206.72 212.074 206.96C211.462 207.2 210.736 207.32 209.896 207.32C209.092 207.32 208.33 207.218 207.61 207.014C206.89 206.81 206.224 206.438 205.612 205.898L206.908 204.134C207.34 204.53 207.79 204.836 208.258 205.052C208.726 205.268 209.266 205.376 209.878 205.376C210.394 205.376 210.826 205.304 211.174 205.16C211.534 205.016 211.816 204.818 212.02 204.566C212.236 204.314 212.386 204.008 212.47 203.648C212.566 203.3 212.614 202.91 212.614 202.478V201.848H212.578C212.266 202.268 211.852 202.586 211.336 202.802C210.82 203.006 210.292 203.108 209.752 203.108C209.104 203.108 208.516 202.994 207.988 202.766C207.46 202.526 207.004 202.208 206.62 201.812C206.248 201.416 205.96 200.948 205.756 200.408C205.552 199.868 205.45 199.292 205.45 198.68C205.45 198.044 205.546 197.45 205.738 196.898C205.93 196.346 206.212 195.866 206.584 195.458C206.956 195.05 207.4 194.732 207.916 194.504C208.444 194.264 209.044 194.144 209.716 194.144C210.328 194.144 210.898 194.264 211.426 194.504C211.954 194.744 212.374 195.128 212.686 195.656H212.722V194.36H214.774ZM210.166 196.088C209.782 196.088 209.434 196.154 209.122 196.286C208.81 196.406 208.54 196.58 208.312 196.808C208.096 197.024 207.922 197.294 207.79 197.618C207.67 197.93 207.61 198.278 207.61 198.662C207.61 199.01 207.67 199.334 207.79 199.634C207.922 199.934 208.102 200.198 208.33 200.426C208.558 200.654 208.828 200.834 209.14 200.966C209.452 201.098 209.788 201.164 210.148 201.164C210.544 201.164 210.898 201.098 211.21 200.966C211.534 200.834 211.804 200.66 212.02 200.444C212.248 200.216 212.422 199.946 212.542 199.634C212.662 199.322 212.722 198.986 212.722 198.626C212.722 197.87 212.494 197.258 212.038 196.79C211.582 196.322 210.958 196.088 210.166 196.088ZM221.828 196.754C221.408 196.166 220.844 195.872 220.136 195.872C219.848 195.872 219.566 195.944 219.29 196.088C219.014 196.232 218.876 196.466 218.876 196.79C218.876 197.054 218.99 197.246 219.218 197.366C219.446 197.486 219.734 197.588 220.082 197.672C220.43 197.756 220.802 197.846 221.198 197.942C221.606 198.026 221.984 198.164 222.332 198.356C222.68 198.536 222.968 198.788 223.196 199.112C223.424 199.436 223.538 199.88 223.538 200.444C223.538 200.96 223.424 201.398 223.196 201.758C222.98 202.106 222.692 202.388 222.332 202.604C221.984 202.82 221.588 202.976 221.144 203.072C220.7 203.168 220.256 203.216 219.812 203.216C219.14 203.216 218.522 203.12 217.958 202.928C217.394 202.736 216.89 202.388 216.446 201.884L217.886 200.534C218.162 200.846 218.456 201.104 218.768 201.308C219.092 201.5 219.482 201.596 219.938 201.596C220.094 201.596 220.256 201.578 220.424 201.542C220.592 201.506 220.748 201.446 220.892 201.362C221.036 201.278 221.15 201.176 221.234 201.056C221.33 200.924 221.378 200.774 221.378 200.606C221.378 200.306 221.264 200.084 221.036 199.94C220.808 199.796 220.52 199.682 220.172 199.598C219.824 199.502 219.446 199.418 219.038 199.346C218.642 199.262 218.27 199.136 217.922 198.968C217.574 198.788 217.286 198.542 217.058 198.23C216.83 197.918 216.716 197.486 216.716 196.934C216.716 196.454 216.812 196.04 217.004 195.692C217.208 195.332 217.472 195.038 217.796 194.81C218.12 194.582 218.492 194.414 218.912 194.306C219.332 194.198 219.758 194.144 220.19 194.144C220.766 194.144 221.336 194.246 221.9 194.45C222.464 194.642 222.92 194.978 223.268 195.458L221.828 196.754Z" fill="url(#paint1_linear)"/>
<path d="M31.76 174L23.12 158.928V155.376H26C27.696 155.376 29.12 155.008 30.272 154.272C31.424 153.504 32.16 152.448 32.48 151.104H23.12V147.552H32.432C32.144 146.336 31.552 145.328 30.656 144.528C29.76 143.696 28.512 143.28 26.912 143.28H23.12V139.728H44.768V143.28H37.232C38.352 144.496 39.056 145.92 39.344 147.552H44.768V151.104H39.44C39.12 153.472 38.208 155.328 36.704 156.672C35.2 157.984 33.264 158.88 30.896 159.36L40.304 174H31.76ZM47.8528 174H75.4528V166.656H63.9328L68.7328 162C72.5728 158.304 75.2128 154.752 75.2128 150.048C75.2128 143.712 70.7488 139.2 62.3488 139.2C54.0448 139.2 48.8608 143.568 48.5248 152.16H57.4528C57.8848 148.08 59.4208 146.592 61.8688 146.592C64.3168 146.592 65.5168 148.128 65.5168 150.432C65.5168 153.312 63.2608 156.24 59.8528 159.888L47.8528 172.608V174ZM94.4296 166.944C90.2056 166.944 88.3336 163.92 88.3336 157.536V156.096C88.3336 149.76 90.2056 146.64 94.3336 146.64C98.5096 146.64 100.334 149.808 100.334 156.096V157.488C100.334 163.824 98.6536 166.944 94.4296 166.944ZM94.1416 174.576C103.934 174.576 110.174 168.192 110.174 157.296V155.952C110.174 144.816 103.358 139.2 94.3336 139.2C85.2616 139.2 78.4936 145.296 78.4936 156.144V157.584C78.4936 168.384 84.5416 174.576 94.1416 174.576ZM115.387 179.856L122.299 168.096L114.331 165.264L110.299 177.888L115.387 179.856ZM139.477 166.944C135.253 166.944 133.381 163.92 133.381 157.536V156.096C133.381 149.76 135.253 146.64 139.381 146.64C143.557 146.64 145.381 149.808 145.381 156.096V157.488C145.381 163.824 143.701 166.944 139.477 166.944ZM139.189 174.576C148.981 174.576 155.221 168.192 155.221 157.296V155.952C155.221 144.816 148.405 139.2 139.381 139.2C130.309 139.2 123.541 145.296 123.541 156.144V157.584C123.541 168.384 129.589 174.576 139.189 174.576ZM174.633 166.944C170.409 166.944 168.537 163.92 168.537 157.536V156.096C168.537 149.76 170.409 146.64 174.537 146.64C178.713 146.64 180.537 149.808 180.537 156.096V157.488C180.537 163.824 178.857 166.944 174.633 166.944ZM174.345 174.576C184.137 174.576 190.377 168.192 190.377 157.296V155.952C190.377 144.816 183.561 139.2 174.537 139.2C165.465 139.2 158.697 145.296 158.697 156.144V157.584C158.697 168.384 164.745 174.576 174.345 174.576ZM209.789 166.944C205.565 166.944 203.693 163.92 203.693 157.536V156.096C203.693 149.76 205.565 146.64 209.693 146.64C213.869 146.64 215.693 149.808 215.693 156.096V157.488C215.693 163.824 214.013 166.944 209.789 166.944ZM209.501 174.576C219.293 174.576 225.533 168.192 225.533 157.296V155.952C225.533 144.816 218.717 139.2 209.693 139.2C200.621 139.2 193.853 145.296 193.853 156.144V157.584C193.853 168.384 199.901 174.576 209.501 174.576Z" fill="url(#paint2_linear)"/>
<g clip-path="url(#clip2)">
<path d="M60 17.7778L44.4444 0H20L51.1111 37.7778L76.7133 27.2222L60 17.7778Z" fill="url(#paint3_linear)"/>
<path d="M75.5556 0L60 17.7778L71.9778 34.0267L74.7044 30.7178L100 0H75.5556Z" fill="url(#paint4_linear)"/>
<path d="M71.5667 35.6133C71.7445 35.1311 71.8578 34.6178 71.8578 34.0734C71.8578 32.8946 71.3895 31.7641 70.5561 30.9307C69.7226 30.0972 68.5921 29.6289 67.4134 29.6289H52.5978C51.4191 29.6289 50.2886 30.0972 49.4551 30.9307C48.6216 31.7641 48.1534 32.8946 48.1534 34.0734C48.1534 34.6178 48.2645 35.1311 48.4445 35.6133C41.2045 39.6711 36.3022 47.4067 36.3022 56.2956C36.3 69.3867 46.9134 80 60.0045 80C73.0956 80 83.7089 69.3867 83.7089 56.2956C83.7089 47.4067 78.8067 39.6711 71.5667 35.6133V35.6133Z" fill="#C4C4C4"/>
<path d="M68.8935 64.2691H61.0201C62.9713 61.5269 66.3801 57.0824 67.709 54.7113C68.7068 52.758 69.329 51.5135 69.329 49.3113C69.329 44.698 65.8401 40.918 59.8979 40.918C54.9535 40.918 51.5868 44.9891 51.5868 44.9891C51.2957 45.3224 51.3379 45.8202 51.629 46.0713L54.1646 48.6469C54.2393 48.7259 54.3294 48.7888 54.4294 48.8318C54.5293 48.8748 54.6369 48.897 54.7457 48.897C54.8545 48.897 54.9621 48.8748 55.062 48.8318C55.162 48.7888 55.252 48.7259 55.3268 48.6469C56.1157 47.7735 57.6535 46.5691 59.3557 46.5691C61.6824 46.5691 63.0135 47.9802 63.0135 49.5602C63.0135 50.7224 62.4735 51.8869 61.9335 52.718C59.4801 56.4557 53.3313 64.8091 50.9224 67.9669V68.798C50.9224 69.2157 51.2535 69.5869 51.7113 69.5869H68.8935C69.1004 69.5797 69.2969 69.4942 69.4433 69.3478C69.5898 69.2014 69.6752 69.0049 69.6824 68.798V65.0602C69.6763 64.8527 69.5912 64.6553 69.4447 64.5083C69.2981 64.3613 69.101 64.2758 68.8935 64.2691V64.2691Z" fill="#666666"/>
</g>
<g clip-path="url(#clip3)">
<path d="M356.26 193.732C356.139 197.63 354.863 248.943 350.331 263.017C357.204 272.242 407.073 336.949 407.224 338.384C407.375 339.82 398.916 347.616 397.405 347.616C395.895 347.616 319.396 285.38 315.492 281.308C311.587 277.236 309.797 260.298 309.797 260.298" fill="#222222"/>
<path d="M358.443 177.58C358.443 225.659 296.966 272.725 284.829 279.449C282.405 284.496 243.192 365.574 242.264 367.795C239.091 368.165 234.046 366.67 231.622 363.497C232.377 360.324 250.851 267.497 253.275 261.892C255.699 256.286 286.506 198.499 295.289 187.333" fill="#2FCCEB"/>
<path d="M315.303 79.8806C299.919 79.8806 293.545 104.744 293.545 112.155C293.545 123.888 300.251 170.244 295.289 187.333C301.422 188.338 350.686 184.205 358.443 177.58C358.443 130.702 329.932 79.8806 315.303 79.8806Z" fill="#9933FF"/>
<path d="M296.067 137.637C305.273 142.971 321.556 144.822 327.704 143.575C312.599 176.159 267.02 187.703 253.645 191.216C251.47 187.832 248.441 181.289 248.2 176.318C253.841 173.636 286.339 161.291 296.067 137.637Z" fill="#FFD8D8"/>
<path d="M300.674 89.6186C297.743 88.8027 227.755 74.9849 226.177 74.592C225.127 76.6998 222.627 84.8591 222.627 87.8886C225.648 89.596 293.544 112.155 293.544 112.155" fill="#FFD8D8"/>
<path d="M226.177 74.5921C222.68 73.8744 197.047 67.959 196.413 67.8306C195.778 67.7021 195.242 67.4377 195.144 67.8306C194.117 72.0764 201.813 73.5647 205.408 74.5921C204.38 78.0674 203.995 80.8022 206.518 82.147C208.783 83.3709 212.816 84.7912 223.178 84.1339" fill="#FFD8D8"/>
<path d="M296.067 137.637C297.644 133.845 298.559 129.81 298.771 125.708" stroke="#222222" stroke-linecap="round" stroke-linejoin="round"/>
<path d="M316.255 94.552C327.636 94.552 332.606 113.575 332.606 120.843C332.656 128.677 330.986 136.428 327.712 143.545" stroke="#222222" stroke-linecap="round" stroke-linejoin="round"/>
<path d="M293.544 112.155L281.279 108.037C282.858 96.7504 287.419 89.0671 288.937 87.1406C295.448 88.4552 299.971 89.4071 300.674 89.5884" fill="#9933FF"/>
<path d="M245.164 194.442C238.945 194.442 233.903 190.312 233.903 185.218C233.903 180.123 238.945 175.993 245.164 175.993C251.383 175.993 256.424 180.123 256.424 185.218C256.424 190.312 251.383 194.442 245.164 194.442Z" fill="#FFD8D8"/>
<path d="M294.692 104.328C294.126 106.906 293.742 109.522 293.544 112.155C292.147 111.671 285.501 109.48 285.501 109.48C285.501 109.48 291.966 108.974 294.692 104.328Z" fill="#222222"/>
<path d="M306.618 168.295C305.772 171.317 300.19 187.182 312.267 186.759C307.048 187.137 298.31 187.877 295.289 187.333C295.5 186.578 296.973 178.146 296.996 174.573C298.423 173.765 306.618 168.295 306.618 168.295Z" fill="#222222"/>
<path d="M306.776 86.3022C307.856 88.1002 317.848 82.283 316.685 80.349L309.45 68.2612L299.533 74.2144L306.776 86.3022Z" fill="#FFD8D8"/>
<path d="M313.792 75.4912C313.151 74.4184 307.154 71.7742 305.636 73.5345C307.471 71.3134 308.264 68.2461 309.472 68.299L313.792 75.4912Z" fill="#222222"/>
<path d="M296.294 76.7907C288.001 76.7907 281.279 70.0665 281.279 61.7717C281.279 53.4769 288.001 46.7527 296.294 46.7527C304.586 46.7527 311.308 53.4769 311.308 61.7717C311.308 70.0665 304.586 76.7907 296.294 76.7907Z" fill="#FFD8D8"/>
<path d="M289.25 65.207C288.85 65.9625 286.75 68.9845 289.394 69.8306" stroke="#222222" stroke-width="0.69" stroke-miterlimit="10" stroke-linecap="round"/>
<path d="M292.748 71.573C293.504 71.4748 294.561 70.4474 295.082 69.5408" stroke="#222222" stroke-width="0.69" stroke-miterlimit="10" stroke-linecap="round"/>
<path d="M308.43 63.2145C306.603 63.2145 305.122 61.733 305.122 59.9055C305.122 58.0779 306.603 56.5964 308.43 56.5964C310.257 56.5964 311.738 58.0779 311.738 59.9055C311.738 61.733 310.257 63.2145 308.43 63.2145Z" fill="#FFD8D8"/>
<path d="M306.202 62.8217C306.202 67.2186 311.066 70.1272 312.705 70.1272C312.969 70.1631 313.237 70.1403 313.492 70.0605C313.746 69.9807 313.979 69.8459 314.175 69.6655C314.372 69.4852 314.526 69.2638 314.626 69.0172C314.727 68.7705 314.773 68.5047 314.759 68.2385C314.759 66.3952 313.672 64.8162 311.391 62.8217C311.791 62.1342 314.759 58.5155 314.759 53.4008C314.759 47.9991 311.444 43.4738 309.223 43.4738C308.271 43.5335 307.366 43.908 306.649 44.5384C305.933 45.1688 305.446 46.0194 305.266 46.9565C305.266 39.4093 297.2 34 292.427 34C287.948 34 287.14 35.9567 287.14 37.5357C287.14 41.0109 289.874 44.7279 290.916 45.642C288.409 43.7911 284.497 41.9326 281.098 41.9326C278.968 41.9326 276.249 42.537 276.249 45.4682C276.249 50.8548 281.287 53.9674 282.971 54.8362C283.625 53.5764 284.448 52.4122 285.418 51.3761C285.108 52.396 286.354 54.247 288.733 54.6625C290.048 54.9042 306.202 52.7284 306.202 62.8217Z" fill="#222222"/>
<path fill-rule="evenodd" clip-rule="evenodd" d="M275 62H304V64H303V66H302V67H301V68H294V67H293V66H292V64H289V66H288V67H286V68H278V67H277V66H276V64H275V62Z" fill="#222222"/>
<rect x="277" y="63" width="1" height="1" fill="white"/>
<rect x="278" y="64" width="1" height="1" fill="white"/>
<rect x="279" y="65" width="1" height="1" fill="white"/>
<rect x="280" y="66" width="1" height="1" fill="white"/>
<rect x="279" y="63" width="1" height="1" fill="white"/>
<rect x="280" y="64" width="1" height="1" fill="white"/>
<rect x="281" y="65" width="1" height="1" fill="white"/>
<rect x="282" y="66" width="1" height="1" fill="white"/>
<rect x="293" y="63" width="1" height="1" fill="white"/>
<rect x="294" y="64" width="1" height="1" fill="white"/>
<rect x="295" y="65" width="1" height="1" fill="white"/>
<rect x="296" y="66" width="1" height="1" fill="white"/>
<rect x="298" y="66" width="1" height="1" fill="white"/>
<rect x="297" y="65" width="1" height="1" fill="white"/>
<rect x="296" y="64" width="1" height="1" fill="white"/>
<rect x="295" y="63" width="1" height="1" fill="white"/>
</g>
</g>
<defs>
<linearGradient id="paint0_linear" x1="338.5" y1="-111" x2="338.5" y2="164" gradientUnits="userSpaceOnUse">
<stop stop-color="#E2E2E2"/>
<stop offset="1" stop-color="#F0F0F0"/>
</linearGradient>
<linearGradient id="paint1_linear" x1="20" y1="185" x2="145.958" y2="297.431" gradientUnits="userSpaceOnUse">
<stop stop-color="#EC1943"/>
<stop offset="1" stop-color="#FF00A8"/>
</linearGradient>
<linearGradient id="paint2_linear" x1="20" y1="121" x2="224.861" y2="193.831" gradientUnits="userSpaceOnUse">
<stop stop-color="#EC1943"/>
<stop offset="1" stop-color="#FF00A8"/>
</linearGradient>
<linearGradient id="paint3_linear" x1="20" y1="0" x2="81.265" y2="10.0608" gradientUnits="userSpaceOnUse">
<stop stop-color="#EC1943"/>
<stop offset="1" stop-color="#FF00A8"/>
</linearGradient>
<linearGradient id="paint4_linear" x1="60" y1="0" x2="103.654" y2="5.61349" gradientUnits="userSpaceOnUse">
<stop stop-color="#EC1943"/>
<stop offset="1" stop-color="#FF00A8"/>
</linearGradient>
<clipPath id="clip0">
<rect width="384" height="230" rx="8" fill="white"/>
</clipPath>
<clipPath id="clip1">
<rect width="143" height="219" fill="white" transform="translate(56 17)"/>
</clipPath>
<clipPath id="clip2">
<rect width="80" height="80" fill="white" transform="translate(20)"/>
</clipPath>
<clipPath id="clip3">
<rect width="341" height="342" fill="white" transform="matrix(-1 0 0 1 411 34)"/>
</clipPath>
</defs>
</svg>
