<svg width="114" height="24" viewBox="0 0 114 24" fill="none" xmlns="http://www.w3.org/2000/svg">
<path d="M1.35 17.534C1.35 18.56 1.35 19.172 1.332 20H4.032C4.014 19.136 4.014 18.47 4.014 17.534V14.564C4.014 12.188 4.59 11.702 6.228 11.702C7.848 11.702 8.352 12.188 8.352 14.204V17.642C8.352 18.74 8.352 19.136 8.334 20H11.016C10.998 19.1 10.998 18.488 10.998 17.66V15.14C11.016 13.97 11.016 13.322 11.016 12.782C11.016 10.28 10.026 9.272 7.542 9.272C5.742 9.272 4.59 9.794 3.942 11.162C3.978 10.118 4.05 6.878 4.05 6.536H1.332C1.35 7.31 1.35 8.03 1.35 9.11V17.534ZM16.9675 20.216C18.8755 20.216 19.9375 19.64 20.5135 18.614L20.5315 20H22.9795C22.9615 18.578 22.9615 17.66 22.9615 16.58C22.9615 14.78 22.9795 14.24 22.9795 12.818C22.9795 10.388 21.9355 9.272 18.1915 9.272C14.7175 9.272 13.5835 10.28 13.6195 12.728L16.0855 12.782C16.0855 11.792 16.3555 11.45 18.1015 11.45C19.8655 11.45 20.3155 11.936 20.3155 13.43V14.564C19.7215 13.844 18.6955 13.52 17.0035 13.52C14.1415 13.52 13.1335 14.51 13.1335 16.904C13.1335 19.28 14.0695 20.216 16.9675 20.216ZM18.1015 18.236C16.3915 18.236 15.8515 17.894 15.8515 16.796C15.8515 15.68 16.2295 15.266 18.1915 15.266C19.9015 15.266 20.3875 15.662 20.3875 16.472V16.814C20.3875 17.822 19.9015 18.236 18.1015 18.236ZM30.0542 20.216C33.7442 20.216 35.0582 19.01 35.0582 15.716L32.4302 15.644C32.4302 17.228 31.8722 17.84 30.0722 17.84C28.2722 17.84 27.6782 17.282 27.6782 14.798V14.69C27.6782 12.188 28.2542 11.63 30.0542 11.63C31.8542 11.63 32.3762 12.242 32.3942 13.826L35.0222 13.772C35.0222 10.334 33.7622 9.272 30.0542 9.272C26.3462 9.272 24.9782 10.46 24.9782 14.474V15.014C24.9782 19.028 26.3462 20.216 30.0542 20.216ZM37.016 17.498C37.016 18.524 37.016 19.28 36.998 20H39.698C39.68 19.262 39.68 18.524 39.68 17.48V15.734H40.706C41.048 16.256 41.426 16.778 41.804 17.318L43.802 20H46.988L47.006 19.964C45.746 18.434 44.108 16.202 42.794 14.492C44.018 12.926 45.53 10.964 46.754 9.524L46.736 9.488H43.604L41.84 11.81C41.39 12.386 40.994 12.944 40.634 13.484H39.68V9.092C39.68 8.03 39.68 7.202 39.698 6.536H36.998C37.016 7.22 37.016 8.03 37.016 9.092V17.498ZM52.3801 20.216C56.1421 20.216 57.5101 19.028 57.5101 15.014V14.474C57.5101 10.46 56.1421 9.272 52.3801 9.272C48.6001 9.272 47.2321 10.46 47.2321 14.474V15.014C47.2321 19.028 48.6001 20.216 52.3801 20.216ZM52.3801 17.858C50.5081 17.858 49.9321 17.282 49.9321 14.798V14.69C49.9321 12.188 50.5081 11.63 52.3801 11.63C54.2521 11.63 54.8281 12.188 54.8281 14.69V14.798C54.8281 17.282 54.2521 17.858 52.3801 17.858ZM59.5135 13.556C59.5135 14.726 59.4955 16.148 59.4955 16.706C59.4955 19.208 60.4495 20.216 62.9155 20.216C64.7335 20.216 65.8855 19.658 66.5335 18.182L66.5515 20H69.0895C69.0715 19.226 69.0715 18.65 69.0715 17.75V11.9C69.0715 10.892 69.0715 10.316 69.0895 9.488H66.3895C66.4075 10.298 66.4075 10.82 66.4075 11.81V14.816C66.4075 17.3 65.8315 17.768 64.2295 17.768C62.6095 17.768 62.1595 17.3 62.1595 15.284V11.612C62.1595 10.712 62.1775 10.226 62.1775 9.488H59.4955C59.5135 10.316 59.5135 10.874 59.5135 11.648V13.556ZM72.1468 12.764C72.1468 14.384 72.1288 15.968 72.1288 17.03C72.1288 19.352 72.9388 20.072 75.8008 20.072C76.4488 20.072 76.9528 20.054 77.6368 20L77.6188 17.75C77.1148 17.768 76.8448 17.786 76.4668 17.786C74.9908 17.786 74.7928 17.534 74.7928 16.292V11.738H77.6188V9.488H74.7928C74.7928 8.624 74.7928 8.03 74.8108 7.418L72.1288 7.49C72.1468 8.048 72.1468 8.75 72.1468 9.488H70.5448V11.738H72.1468V12.764ZM87.4239 12.35V9.362C87.3339 9.38 86.8839 9.38 86.3979 9.38C86.4879 9.128 86.5779 8.894 86.6679 8.66L87.1539 7.202H85.0839L84.3099 9.434V12.35H87.4239ZM100.083 20V17.714C99.2728 17.732 98.1748 17.732 96.9148 17.732H91.8748V17.084C91.8748 15.932 92.2528 15.662 94.8448 15.338C99.0568 14.888 100.047 13.916 100.047 11.072V11C100.047 8.012 98.7688 6.968 94.6648 6.968C90.3988 6.968 89.2828 8.174 89.3188 11.126V11.396L92.0008 11.468V11C92.0008 9.686 92.6128 9.236 94.6648 9.236C96.8608 9.236 97.3468 9.686 97.3468 11.018V11.072C97.3468 12.314 96.9328 12.836 94.1968 13.16C89.8948 13.664 89.2108 14.474 89.2108 16.868V20H100.083ZM112.634 20V17.714C111.824 17.732 110.726 17.732 109.466 17.732H104.426V17.084C104.426 15.932 104.804 15.662 107.396 15.338C111.608 14.888 112.598 13.916 112.598 11.072V11C112.598 8.012 111.32 6.968 107.216 6.968C102.95 6.968 101.834 8.174 101.87 11.126V11.396L104.552 11.468V11C104.552 9.686 105.164 9.236 107.216 9.236C109.412 9.236 109.898 9.686 109.898 11.018V11.072C109.898 12.314 109.484 12.836 106.748 13.16C102.446 13.664 101.762 14.474 101.762 16.868V20H112.634Z" fill="#F0F0F0"/>
<line x1="56.175" y1="9.50015" x2="48.7921" y2="20.4201" stroke="#F0F0F0" stroke-width="1.5"/>
</svg>
