<svg width="448" height="97" viewBox="0 0 448 97" fill="none" xmlns="http://www.w3.org/2000/svg">
	<path d="M0.358237 95H15.3622V56.808C15.3622 46.516 22.1822 41.308 30.6142 41.308C39.5422 41.308 43.5102 45.772 43.5102 55.568V95H58.5142V54.204C58.5142 36.348 49.3382 28.784 36.3182 28.784C25.6542 28.784 18.4622 34.116 15.3622 40.44V0.139994H0.358237V95ZM90.3076 96.24C100.228 96.24 105.932 92.644 110.148 87.064V95H124.904V52.468C124.904 34.736 113.496 28.784 98.9876 28.784C84.4796 28.784 72.4516 35.108 71.2116 50.236H85.7196C86.4636 43.788 90.3076 40.068 98.1196 40.068C106.924 40.068 109.9 44.408 109.9 53.088V56.436H101.84C83.2396 56.436 68.6076 61.892 68.6076 77.02C68.6076 90.536 78.4036 96.24 90.3076 96.24ZM93.9036 85.452C86.4636 85.452 83.4876 81.856 83.4876 76.4C83.4876 68.464 90.8036 65.86 102.212 65.86H109.9V72.308C109.9 80.616 103.08 85.452 93.9036 85.452ZM168.017 96.24C185.625 96.24 196.909 85.7 198.025 70.82H184.261C183.393 79.996 176.573 84.708 168.637 84.708C157.601 84.708 150.657 77.268 150.657 63.132V62.14C150.657 48.748 157.973 40.812 168.265 40.812C176.201 40.812 181.905 44.408 183.145 53.088H197.653C195.917 35.232 182.401 28.784 168.017 28.784C149.913 28.784 135.281 41.804 135.281 62.388V63.38C135.281 84.088 149.417 96.24 168.017 96.24ZM208.465 95H223.469V63.132L247.773 95H265.133L237.853 59.908L263.025 30.148H246.657L223.469 58.668V0.139994H208.465V95ZM298.818 84.584C287.41 84.584 280.838 76.276 280.838 63.008V62.016C280.838 48.624 287.658 40.564 298.818 40.564C309.978 40.564 316.674 48.748 316.674 62.14V63.008C316.674 76.276 309.978 84.584 298.818 84.584ZM298.694 96.24C317.79 96.24 332.05 83.096 332.05 62.884V61.892C332.05 42.052 317.79 28.784 298.818 28.784C279.722 28.784 265.462 42.176 265.462 62.264V63.256C265.462 82.972 279.598 96.24 298.694 96.24ZM364.826 96.24C375.366 96.24 382.186 91.156 385.41 84.832V95H400.414V30.148H385.41V68.712C385.41 79.004 378.342 84.212 370.282 84.212C361.602 84.212 357.51 79.748 357.51 69.952V30.148H342.506V71.688C342.506 88.924 352.054 96.24 364.826 96.24ZM437.796 96.116C442.384 96.116 445.608 95.372 447.964 94.504V82.6C445.856 83.468 443.624 83.84 440.648 83.84C435.936 83.84 433.208 81.236 433.208 75.532V41.432H447.468V30.148H433.208V15.888H418.204V30.148H409.524V41.432H418.204V76.896C418.204 89.172 424.9 96.116 437.796 96.116Z" fill="white" />
</svg>	