<svg width="275" height="42" viewBox="0 0 275 42" fill="none" xmlns="http://www.w3.org/2000/svg">
	<path d="M97.3474 13.8603C100.052 11.7321 103.849 9.93837 107.921 9.93837C111.779 9.93837 115 11.5193 115 17.539V38H109.622V18.8159C109.622 15.3804 108.103 14.438 105.46 14.438C102.452 14.438 99.6565 15.8669 97.3778 17.1742V38H92V1H94.9472C97.0132 1 97.3778 1.48644 97.3778 4.58751V13.8603H97.3474Z" fill="white" />
	<path d="M124.511 25.0792C124.782 31.5546 127.703 33.9829 132.852 33.9829C136.375 33.9829 138.784 32.8437 140.44 31.4946H142.157V35.182C140.169 36.531 137.188 38 132.039 38C123.668 38 119 32.6938 119 24.1199C119 15.4261 124.39 10 131.527 10C138.754 10 143 14.227 143 23.1906C143 23.9101 142.94 24.8694 142.94 25.0792H124.511ZM124.601 21.5717H137.7C137.61 15.666 135.291 13.6574 131.527 13.6574C127.944 13.6574 125.173 15.7859 124.601 21.5717Z" fill="white" />
	<path d="M162.779 34.6724C160.727 36.8608 158.252 38 154.601 38C149.621 38 146 35.182 146 29.8758C146 24.2998 150.466 21.5717 156.653 21.5717C159.007 21.5717 160.757 21.8415 162.628 22.2912V18.6938C162.628 15.4561 160.727 14.0471 157.106 14.0471C153.846 14.0471 151.342 15.0364 149.591 16.2955H147.901V12.3383C150.315 11.1392 153.364 10 157.77 10C164.288 10 168 12.3383 168 18.334V37.6702H165.888C163.835 37.7002 163.111 37.1006 162.779 34.6724ZM162.628 31.2248V25.439C161.119 25.1392 159.429 24.9293 157.528 24.9293C153.846 24.9293 151.221 26.2784 151.221 29.576C151.221 32.9636 153.364 34.3726 156.321 34.3726C159.218 34.3426 161.059 32.9936 162.628 31.2248Z" fill="white" />
	<path d="M191.798 33.9625C189.936 36.2223 187.069 38 183.374 38C177.759 38 173 33.9023 173 24.3811C173 13.6246 178.704 9.85831 184.113 9.85831C187.808 9.85831 190.025 10.9731 191.768 12.6906V1H194.635C196.704 1 197 1.51221 197 4.55537V37.6686H193.542C192.36 37.6987 191.946 37.066 191.798 33.9625ZM191.739 30.4072V16.4568C190.202 14.9805 188.34 14.1368 185.562 14.1368C182.015 14.1368 178.261 16.0651 178.261 24.0798C178.261 31.5822 180.98 34.0228 184.645 34.0228C187.631 34.0831 189.729 32.6669 191.739 30.4072Z" fill="white" />
	<path d="M202 24.1199C202 15.4261 207.618 10 215 10C222.382 10 228 15.4261 228 24.1199C228 32.7837 222.382 38 215 38C207.618 38 202 32.7837 202 24.1199ZM222.561 24.1199C222.561 17.5546 219.602 14.0171 214.97 14.0171C210.398 14.0171 207.379 17.5546 207.379 24.1199C207.379 30.6852 210.398 33.9829 214.97 33.9829C219.602 33.9829 222.561 30.7152 222.561 24.1199Z" fill="white" />
	<path d="M250.594 31.1367V10H256V37.6356H252.61C251.327 37.6356 250.807 37.2104 250.655 34.5076C247.906 36.4512 244.271 38 240.606 38C236.238 38 233 36.2082 233 30.6204V10H238.406V29.3753C238.406 32.9284 240.147 33.7484 242.713 33.7484C245.523 33.7787 248.364 32.4425 250.594 31.1367Z" fill="white" />
	<path d="M260 9.61479H263.307V2H266.523C268.176 2 268.687 2.61909 268.687 5.00258L268.627 9.61479H274.699V13.4841H268.627V30.0447C268.627 33.0473 269.83 33.914 272.535 33.914H275V37.4738C274.038 37.6905 272.535 38 270.671 38C266.042 38 263.337 35.988 263.337 30.7567V13.4841H260.03V9.61479H260Z" fill="white" />
	<path d="M74.8971 17.1597C69.33 27.6139 55.5493 32.8258 41.3427 32.8258C30.0564 32.8258 18.9528 31.3324 9.27888 27.0348C32.3989 29.5036 54.7888 28.5283 74.8971 17.1597ZM74.8971 12.8012C68.1436 10.7895 62.0594 10.2104 55.7622 10.2714C39.7912 10.3933 23.6376 15.209 9.37014 21.5181C20.7172 11.4296 37.6009 4.08418 54.515 4.08418C62.5765 4.08418 71.855 7.5283 74.8971 12.8012ZM78 15.0871C78 4.35849 61.8464 0 52.6289 0C38.1789 0 26.0409 5.27286 15.6673 11.0639C15.0285 9.90566 14.1158 9.69231 12.686 9.50943C10.5566 9.32656 9.24846 9.23512 7.63614 9.23512C5.87172 9.23512 3.22509 9.35704 1.15646 9.69231C0.152564 9.87518 -0.182067 10.6676 0.0917223 11.8868C1.00435 15.209 2.3733 18.1959 4.16814 21C3.37719 23.7431 3.65098 26.3338 5.93256 28.4673C5.14161 31.6676 4.89825 35.1727 5.01993 38.3425C5.20246 39.6531 5.87172 40.0189 6.96688 39.836C11.0433 39.1959 14.998 37.7634 18.4356 35.9347C19.2874 35.4775 19.6829 34.9594 19.9262 34.3193L29.9956 35.8737C31.5471 37.5501 33.0986 38.9826 34.9847 40.5675C36.2319 41.4819 37.5704 42 39.2132 42C46.5446 41.939 52.7201 40.8418 57.8309 38.8911C59.8386 38.2511 61.3293 35.5689 63.55 31.82C68.4782 29.3208 78 24.627 78 15.0871Z" fill="white" />
</svg>